<svg width="91" height="81" viewBox="0 0 91 81" fill="none" xmlns="http://www.w3.org/2000/svg">
<path d="M82.7929 80.2071C83.1834 80.5976 83.8166 80.5976 84.2071 80.2071L90.5711 73.8431C90.9616 73.4526 90.9616 72.8195 90.5711 72.4289C90.1805 72.0384 89.5474 72.0384 89.1569 72.4289L83.5 78.0858L77.8431 72.4289C77.4526 72.0384 76.8195 72.0384 76.4289 72.4289C76.0384 72.8195 76.0384 73.4526 76.4289 73.8431L82.7929 80.2071ZM0 1V2C19.592 2 40.2307 7.21074 55.9473 19.4759C71.6265 31.7118 82.5 51.0379 82.5 79.5L83.5 79.5L84.5 79.5C84.5 50.4621 73.3735 30.5382 57.1777 17.8991C41.0193 5.28926 19.908 2.97877e-08 0 -4.25878e-08V1Z" fill="#255F83"/>
</svg>
