<svg width="77" height="116" viewBox="0 0 77 116" fill="none" xmlns="http://www.w3.org/2000/svg">
<path d="M6.65685 0.292953C7.04737 -0.0975723 7.68054 -0.0975723 8.07106 0.292953L14.435 6.65691C14.8255 7.04744 14.8255 7.6806 14.435 8.07113C14.0445 8.46165 13.4113 8.46165 13.0208 8.07113L7.36395 2.41428L1.7071 8.07113C1.31657 8.46165 0.683409 8.46165 0.292885 8.07113C-0.0976396 7.6806 -0.0976396 7.04744 0.292885 6.65691L6.65685 0.292953ZM76.3649 114.799L76.0669 115.753C48.8434 107.254 31.3708 92.477 20.7343 72.7973C10.12 53.1584 6.36395 28.7306 6.36395 1.00006H7.36395H8.36395C8.36395 28.5883 12.108 52.6303 22.4938 71.8463C32.8575 91.0214 49.8854 105.484 76.6629 113.844L76.3649 114.799Z" fill="#255F83"/>
</svg>
