<svg width="68" height="32" viewBox="0 0 68 32" fill="none" xmlns="http://www.w3.org/2000/svg">
<path d="M0.46951 21.9683C0.00139558 22.2614 -0.140507 22.8784 0.152557 23.3466L4.92835 30.9749C5.22141 31.443 5.83847 31.5849 6.30658 31.2919C6.7747 30.9988 6.91661 30.3817 6.62353 29.9136L2.3784 23.1329L9.15916 18.8877C9.62727 18.5947 9.76918 17.9776 9.47611 17.5095C9.18304 17.0414 8.56599 16.8995 8.09787 17.1925L0.46951 21.9683ZM67.0002 0.509379C66.1393 0.000648656 66.1395 0.000275241 66.1396 2.68193e-05C66.1396 0.000110676 66.1397 -1.36582e-05 66.1396 0.000154968C66.1394 0.000488598 66.1389 0.00132057 66.1381 0.00264488C66.1365 0.00529356 66.1337 0.00991318 66.1298 0.0164672C66.1218 0.0295754 66.1092 0.050419 66.0917 0.0787087C66.0568 0.135289 66.0028 0.221641 65.9294 0.335434C65.7827 0.563038 65.5585 0.900316 65.2553 1.32866C64.6487 2.18549 63.7261 3.40577 62.4734 4.84095C59.967 7.71231 56.1451 11.4367 50.8945 14.8331C40.417 21.6105 24.1917 27.1232 1.22427 21.8414L1.00015 22.8159L0.776037 23.7905C24.3085 29.2022 41.0832 23.5616 51.9808 16.5124C57.4177 12.9954 61.3771 9.13815 63.9801 6.15616C65.282 4.66467 66.2462 3.39036 66.8876 2.48427C67.2084 2.03116 67.4487 1.66989 67.6103 1.41931C67.6911 1.29402 67.7522 1.19637 67.7939 1.12873C67.8148 1.09491 67.8308 1.06858 67.842 1.05005C67.8476 1.04078 67.852 1.03346 67.8552 1.02813C67.8567 1.02546 67.858 1.02329 67.859 1.02162C67.8595 1.02078 67.86 1.0199 67.8603 1.01949C67.8607 1.01873 67.8611 1.01811 67.0002 0.509379Z" fill="#255F83"/>
</svg>
