<svg width="131" height="57" viewBox="0 0 131 57" fill="none" xmlns="http://www.w3.org/2000/svg">
<path d="M0.0671698 9.08709C-0.133174 9.58064 0.129701 10.164 0.654319 10.39L9.20344 14.0735C9.72805 14.2996 10.3158 14.0827 10.5161 13.5892C10.7164 13.0956 10.4536 12.5123 9.92894 12.2863L2.32972 9.01202L5.23173 1.86292C5.43207 1.36938 5.16919 0.786046 4.64458 0.560005C4.11996 0.333966 3.53226 0.550819 3.33192 1.04436L0.0671698 9.08709ZM130.018 56.4965C130.951 56.1659 130.951 56.165 130.95 56.1639C130.95 56.1631 130.949 56.1616 130.949 56.1601C130.947 56.1569 130.945 56.1525 130.943 56.1469C130.938 56.1356 130.931 56.1195 130.922 56.0985C130.903 56.0567 130.875 55.9956 130.839 55.9161C130.766 55.7571 130.658 55.5244 130.514 55.224C130.225 54.6231 129.791 53.7513 129.207 52.6569C128.039 50.4685 126.269 47.3879 123.851 43.8027C119.017 36.6359 111.584 27.4318 101.187 19.3104C90.7838 11.1843 77.413 4.14171 60.7298 1.31764C44.0465 -1.50644 24.1151 -0.101046 0.601893 8.57507L1.01707 9.49638L1.43225 10.4177C24.6681 1.8439 44.2362 0.499357 60.506 3.25344C76.7759 6.00754 89.8117 12.8712 99.9717 20.8076C110.138 28.7487 117.423 37.7634 122.168 44.7997C124.54 48.3161 126.273 51.3331 127.412 53.4669C127.982 54.5336 128.402 55.3791 128.679 55.9553C128.817 56.2434 128.92 56.4641 128.987 56.6114C129.021 56.6851 129.046 56.7404 129.062 56.7766C129.07 56.7947 129.076 56.808 129.08 56.8165C129.082 56.8207 129.083 56.8237 129.084 56.8255C129.084 56.8264 129.084 56.8268 129.084 56.8272C129.085 56.8273 129.084 56.8271 130.018 56.4965Z" fill="#255F83"/>
</svg>
