<svg width="20" height="20" viewBox="0 0 20 20" fill="none" xmlns="http://www.w3.org/2000/svg">
<path d="M6.375 18C6.65114 18 6.875 17.7761 6.875 17.5C6.875 17.2239 6.65114 17 6.375 17C6.09886 17 5.875 17.2239 5.875 17.5C5.875 17.7761 6.09886 18 6.375 18Z" stroke="#255F83" stroke-width="1.25" stroke-linecap="round" stroke-linejoin="round"/>
<path d="M17.5 18C17.7761 18 18 17.7761 18 17.5C18 17.2239 17.7761 17 17.5 17C17.2239 17 17 17.2239 17 17.5C17 17.7761 17.2239 18 17.5 18Z" stroke="#255F83" stroke-width="1.25" stroke-linecap="round" stroke-linejoin="round"/>
<path d="M0.875 2H3.83152L6.04891 14H17.875" stroke="#255F83" stroke-width="1.25" stroke-linecap="round" stroke-linejoin="round"/>
<path d="M6.28272 11H17.2559C17.3373 11.0001 17.4162 10.9721 17.4791 10.9208C17.5421 10.8695 17.5852 10.7981 17.6012 10.7187L18.8682 4.41869C18.8784 4.36789 18.8771 4.31546 18.8645 4.2652C18.8519 4.21493 18.8282 4.16808 18.7952 4.12803C18.7621 4.08797 18.7206 4.05571 18.6735 4.03357C18.6264 4.01143 18.5749 3.99996 18.5228 4H4.875" stroke="#255F83" stroke-width="1.25" stroke-linecap="round" stroke-linejoin="round"/>
</svg>
