<svg width="18" height="16" viewBox="0 0 18 16" fill="none" xmlns="http://www.w3.org/2000/svg">
<g clip-path="url(#clip0_2235_581)">
<path d="M15.4379 5.32617C16.8557 7.60492 16.7029 10.2241 15.0508 11.9647L15.1144 10.8757C15.1971 9.45766 15.2798 8.03958 15.3625 6.6215C15.3876 6.18967 15.4128 5.758 15.4379 5.32617Z" fill="#DDC515"/>
<path d="M14.2719 3.88109L13.7416 12.9747C13.4115 13.1591 13.0638 13.3122 12.7031 13.4347C12.753 12.5814 12.8027 11.728 12.8524 10.8747C12.9602 9.02637 13.0679 7.17835 13.1757 5.33017C13.2197 4.57699 13.2635 3.82365 13.3076 3.07031C13.6468 3.31534 13.9697 3.58586 14.2719 3.88125V3.88109Z" fill="#DDC515"/>
<path d="M13.3051 3.07093C13.2612 3.82411 13.2172 4.57761 13.1732 5.33079C13.0654 7.17897 12.9578 9.02714 12.85 10.8753C12.8001 11.7286 12.7504 12.582 12.7006 13.4353C12.3009 13.675 11.7825 13.7968 11.7825 13.7968C11.7825 13.7968 11.2556 13.9024 10.6875 13.8755C10.7627 12.5855 10.8614 11.0451 10.9366 9.75515C11.0188 8.34352 11.1011 6.93174 11.1835 5.52027C11.2516 4.35336 11.3195 3.18644 11.3877 2.01953C12.0609 2.28801 12.7083 2.64005 13.3049 3.07093H13.3051Z" fill="#FCF27C"/>
<path d="M3.96322 2.77344C3.8874 4.07396 3.81157 5.37432 3.73558 6.67484C3.66159 7.94468 3.58761 9.21483 3.51346 10.4847C1.49411 7.87402 1.68326 4.63058 3.96305 2.77344H3.96322Z" fill="#DDC515"/>
<path d="M4.91798 2.14648L4.37666 11.4302C4.23471 11.297 4.09746 11.1587 3.96455 11.0152C3.80437 10.8421 3.65472 10.6649 3.51562 10.4851C3.58961 9.21531 3.66376 7.94517 3.73775 6.67533C3.81374 5.37481 3.88956 4.07445 3.96539 2.77393C4.1224 2.64598 4.28962 2.52449 4.46654 2.4104C4.61334 2.31566 4.76382 2.228 4.91815 2.14664L4.91798 2.14648Z" fill="#FCF27C"/>
<path d="M10.7194 13.6265C10.7166 13.6258 10.7136 13.6252 10.7107 13.6246C10.7859 12.3346 10.8612 11.0446 10.9364 9.75465C11.0185 8.34302 11.1009 6.93124 11.1832 5.51977C11.2512 4.35286 11.3193 3.18595 11.3875 2.01903C9.22919 1.15805 6.8031 1.15349 4.91633 2.14619L4.375 11.4299C6.11213 13.0601 8.49537 13.8971 10.7129 13.7989C10.7159 13.7413 10.7184 13.6839 10.7194 13.6265Z" fill="#DDC515"/>
<path d="M15.7404 3.41731C18.9793 6.92041 18.7046 11.6315 15.1268 13.94C11.5489 16.2483 6.02298 15.2798 2.7839 11.7766C-0.455181 8.27349 -0.180501 3.56256 3.39737 1.25423C6.97524 -1.05426 12.5013 -0.0857892 15.7404 3.41731ZM12.7018 13.435C13.0626 13.3127 13.4102 13.1596 13.7403 12.975C13.8483 12.9147 13.9541 12.8511 14.058 12.7841C14.434 12.5416 14.765 12.2665 15.0513 11.9648C16.7034 10.2241 16.856 7.60482 15.4384 5.32623C15.1927 4.93138 14.9001 4.54692 14.5598 4.17899C14.4658 4.07733 14.3693 3.97818 14.2706 3.88156C13.9686 3.58633 13.6456 3.31565 13.3064 3.07062C12.7099 2.63973 12.0624 2.28769 11.3892 2.01922C9.23093 1.15824 6.80468 1.15367 4.91807 2.14637C4.76374 2.22758 4.61309 2.31539 4.4663 2.40997C4.28937 2.52407 4.12215 2.64556 3.96514 2.7735C1.68535 4.63065 1.49604 7.87408 3.51555 10.4847C3.65464 10.6646 3.80445 10.8416 3.96447 11.0148C4.09738 11.1584 4.23463 11.2966 4.37658 11.4299C6.28528 13.2211 8.97416 14.055 11.3658 13.7425C11.8247 13.6827 12.2725 13.5805 12.7018 13.4348" fill="#FFF24F"/>
<path d="M14.5617 4.17829C14.902 4.54623 15.1948 4.93084 15.4403 5.32553C15.4152 5.75736 15.3899 6.18919 15.3648 6.62086C15.2821 8.03894 15.1994 9.45702 15.1168 10.8751L15.0532 11.9641C14.7669 12.2656 14.4357 12.5409 14.0599 12.7834C13.9559 12.8504 13.85 12.9142 13.7422 12.9744L14.2725 3.88086C14.3712 3.97733 14.4676 4.07647 14.5617 4.17829Z" fill="#FCF27C"/>
<path d="M17.0372 12.058L16.5143 12.8639C16.0461 13.5856 15.4082 14.2267 14.6031 14.7462C11.0252 17.0545 5.4993 16.0861 2.26022 12.5828C-0.249733 9.86799 -0.649618 6.42784 0.962809 3.94262L1.48572 3.13672C-0.126705 5.62194 0.27318 9.06224 2.7833 11.7771C6.02221 15.2802 11.5483 16.2488 15.1262 13.9405C15.9313 13.421 16.5692 12.7798 17.0374 12.0581" fill="#ECDF43"/>
</g>
<defs>
<clipPath id="clip0_2235_581">
<rect width="18" height="16" fill="white"/>
</clipPath>
</defs>
</svg>
