<svg width="28" height="26" viewBox="0 0 28 26" fill="none" xmlns="http://www.w3.org/2000/svg">
<path d="M24.0144 8.6543C26.2198 12.3573 25.982 16.6134 23.4121 19.442L23.5111 17.6723C23.6397 15.368 23.7683 13.0636 23.8969 10.7592C23.936 10.0575 23.9753 9.35602 24.0144 8.6543Z" fill="#DDC515"/>
<path d="M22.2 6.3058L21.3752 21.0829C20.8617 21.3826 20.3209 21.6314 19.7598 21.8304C19.8374 20.4438 19.9147 19.057 19.992 17.6704C20.1597 14.6669 20.3271 11.6638 20.4948 8.66055C20.5633 7.43663 20.6315 6.21246 20.7 4.98828C21.2278 5.38645 21.73 5.82605 22.2 6.30605V6.3058Z" fill="#DDC515"/>
<path d="M20.6968 4.98978C20.6286 6.2137 20.5601 7.43813 20.4916 8.66205C20.3239 11.6653 20.1565 14.6686 19.9888 17.6719C19.9112 19.0585 19.8339 20.4453 19.7566 21.8319C19.1348 22.2213 18.3284 22.4193 18.3284 22.4193C18.3284 22.4193 17.5087 22.5909 16.625 22.5471C16.7419 20.4509 16.8955 17.9478 17.0124 15.8516C17.1403 13.5577 17.2684 11.2636 17.3965 8.96995C17.5025 7.07372 17.6082 5.17748 17.7142 3.28125C18.7614 3.71752 19.7685 4.28959 20.6965 4.98978H20.6968Z" fill="#FCF27C"/>
<path d="M6.16458 4.50781C6.04663 6.62116 5.92867 8.73425 5.81046 10.8476C5.69538 12.9111 5.58029 14.9751 5.46494 17.0385C2.32374 12.7963 2.61797 7.52567 6.16432 4.50781H6.16458Z" fill="#DDC515"/>
<path d="M7.6502 3.48804L6.80813 18.574C6.58733 18.3577 6.37382 18.1329 6.16708 17.8997C5.9179 17.6184 5.68512 17.3304 5.46875 17.0384C5.58384 14.9749 5.69918 12.9109 5.81427 10.8474C5.93248 8.73407 6.05043 6.62098 6.16839 4.50763C6.41262 4.29972 6.67274 4.1023 6.94796 3.9169C7.17631 3.76295 7.41039 3.62051 7.65046 3.48829L7.6502 3.48804Z" fill="#FCF27C"/>
<path d="M16.6738 22.1435C16.6694 22.1425 16.6647 22.1415 16.6603 22.1404C16.7772 20.0442 16.8943 17.948 17.0112 15.8518C17.1391 13.5579 17.2672 11.2638 17.3953 8.97012C17.501 7.07388 17.607 5.17765 17.713 3.28142C14.3556 1.88232 10.5817 1.8749 7.64675 3.48805L6.80469 18.574C9.50689 21.2231 13.2142 22.5834 16.6636 22.4238C16.6683 22.3302 16.6722 22.2368 16.6738 22.1435Z" fill="#DDC515"/>
<path d="M24.485 5.55313C29.5234 11.2457 29.0961 18.9012 23.5305 22.6525C17.9649 26.4035 9.36906 24.8297 4.33049 19.137C-0.708086 13.4444 -0.280807 5.78917 5.28477 2.03813C10.8503 -1.71317 19.4465 -0.139408 24.485 5.55313ZM19.7584 21.8318C20.3195 21.6331 20.8603 21.3843 21.3738 21.0843C21.5417 20.9864 21.7063 20.8831 21.868 20.7741C22.4528 20.3801 22.9678 19.933 23.4131 19.4428C25.983 16.6142 26.2205 12.3578 24.0153 8.65512C23.6331 8.0135 23.1779 7.38875 22.6486 6.79086C22.5023 6.62566 22.3523 6.46455 22.1987 6.30753C21.7289 5.82778 21.2264 5.38793 20.6989 4.98976C19.7709 4.28957 18.7638 3.7175 17.7165 3.28123C14.3592 1.88213 10.585 1.87472 7.65031 3.48786C7.41024 3.61981 7.1759 3.76251 6.94755 3.9162C6.67233 4.10161 6.41221 4.29903 6.16797 4.50694C2.62163 7.5248 2.32714 12.7954 5.4686 17.0377C5.68497 17.33 5.91801 17.6177 6.16693 17.899C6.37367 18.1325 6.58718 18.357 6.80798 18.5736C9.77707 21.4843 13.9598 22.8394 17.6801 22.3315C18.394 22.2344 19.0905 22.0684 19.7584 21.8316" fill="#FFF24F"/>
<path d="M22.6515 6.78972C23.1809 7.38762 23.6363 8.01262 24.0182 8.65399C23.9792 9.35571 23.9399 10.0574 23.9008 10.7589C23.7722 13.0633 23.6436 15.3677 23.5149 17.672L23.416 19.4417C22.9707 19.9317 22.4555 20.3789 21.8709 20.773C21.7092 20.8819 21.5444 20.9855 21.3767 21.0835L22.2016 6.3064C22.3552 6.46316 22.5052 6.62427 22.6515 6.78972Z" fill="#FCF27C"/>
<path d="M26.5023 19.5947L25.6889 20.9043C24.9606 22.0771 23.9683 23.1189 22.7159 23.9631C17.1503 27.7141 8.55447 26.1403 3.51589 20.4476C-0.388474 16.036 -1.01052 10.4457 1.4977 6.40725L2.31112 5.09766C-0.197097 9.13613 0.424946 14.7266 4.32957 19.1382C9.36789 24.8308 17.964 26.4048 23.5296 22.6537C24.782 21.8096 25.7743 20.7677 26.5026 19.595" fill="#ECDF43"/>
</svg>
