<svg width="32" height="32" viewBox="0 0 32 32" fill="none" xmlns="http://www.w3.org/2000/svg">
<g clip-path="url(#clip0_2007_4774)">
<path fill-rule="evenodd" clip-rule="evenodd" d="M1.14901 7.25833L7.06066 7.54787C6.99978 7.73053 6.9499 7.91667 6.91129 8.1053C7.0125 9.57059 7.4896 10.9846 8.29646 12.2105L5.00894 12.0516C4.4854 12.0723 3.96803 11.9336 3.52498 11.654C2.33886 10.5555 1.43547 9.18612 0.89164 7.66236C0.864766 7.61991 0.850536 7.57067 0.850617 7.52039C0.850699 7.47011 0.865087 7.42089 0.892098 7.37849C0.919109 7.33608 0.957622 7.30226 1.00312 7.28098C1.04862 7.2597 1.09923 7.25184 1.14901 7.25833Z" fill="#FF8C00"/>
<path fill-rule="evenodd" clip-rule="evenodd" d="M6.36955 16.897C6.99342 15.624 7.97786 14.563 9.19988 13.8466C9.23447 13.8327 9.26536 13.8109 9.2901 13.7829C9.31484 13.755 9.33275 13.7217 9.34241 13.6856C9.35207 13.6496 9.35322 13.6118 9.34577 13.5752C9.33831 13.5386 9.32245 13.5043 9.29945 13.475C7.86873 11.7285 6.946 9.62098 6.6324 7.38324C6.6256 6.51127 6.79626 5.6469 7.13398 4.84286C7.47169 4.03883 7.96937 3.31199 8.59666 2.70669C9.22395 2.10139 9.9677 1.63032 10.7825 1.32222C11.5973 1.01412 12.4662 0.875451 13.336 0.914671C15.1072 1.05218 16.757 1.86731 17.9432 3.19095C19.1294 4.5146 19.7609 6.24517 19.7067 8.02369C19.6175 9.22673 19.2445 10.3916 18.6183 11.4226C17.9921 12.4536 17.1306 13.3212 16.1046 13.9541C16.0797 13.9822 16.0616 14.0157 16.0518 14.052C16.0421 14.0883 16.041 14.1264 16.0486 14.1632C16.0322 14.7811 16.1789 17.7579 19.2997 16.7769C20.1264 16.4957 20.875 16.0223 21.484 15.3955L25.0852 11.8796C25.2054 11.7734 25.3605 11.7154 25.5207 11.717C25.681 11.7185 25.8349 11.7795 25.9528 11.888L26.0919 11.9253C27.5646 14.1873 28.177 16.9044 27.8177 19.582C27.8177 19.582 27.401 29.5773 20.6804 31.2866C19.9543 31.4561 19.2085 31.5243 18.464 31.4893L14.3909 31.2941C12.671 31.1874 11.0199 30.5807 9.63991 29.5481L9.4776 29.5046C7.57189 28.0922 6.21907 26.0572 5.65275 23.7511C5.08642 21.445 5.34215 19.0125 6.37577 16.8738L6.36955 16.897Z" fill="#FFF238"/>
<path fill-rule="evenodd" clip-rule="evenodd" d="M8.75412 6.60741C8.7418 7.22758 8.96927 7.82832 9.389 8.28409C9.80874 8.73985 10.3883 9.01537 11.0064 9.05307C11.3064 9.0661 11.606 9.01903 11.8877 8.91464C12.1694 8.81024 12.4275 8.65061 12.6469 8.4451C12.8663 8.23958 13.0426 7.99233 13.1654 7.71781C13.2882 7.44329 13.3551 7.14703 13.3622 6.84638C13.3745 6.22622 13.147 5.62548 12.7273 5.16971C12.3076 4.71395 11.7281 4.43842 11.1099 4.40072C10.8099 4.3877 10.5103 4.43476 10.2286 4.53916C9.94688 4.64356 9.68878 4.80319 9.46939 5.0087C9.25 5.21421 9.07373 5.46147 8.95091 5.73599C8.82809 6.01051 8.76119 6.30677 8.75412 6.60741Z" fill="white"/>
<path fill-rule="evenodd" clip-rule="evenodd" d="M9.2433 6.26538C9.2331 6.67896 9.38457 7.08004 9.66544 7.38315C9.94631 7.68626 10.3344 7.86744 10.7469 7.88808C10.9478 7.90145 11.1493 7.87319 11.3388 7.80508C11.5284 7.73697 11.7019 7.63046 11.8485 7.49221C11.9952 7.35396 12.1118 7.18694 12.1912 7.00158C12.2705 6.81622 12.3109 6.61649 12.3097 6.41488C12.3139 6.00298 12.1604 5.60525 11.8807 5.30344C11.6011 5.00162 11.2165 4.81867 10.8061 4.79218C10.606 4.78233 10.406 4.81301 10.218 4.88241C10.03 4.9518 9.85786 5.05846 9.71195 5.19602C9.56603 5.33357 9.44931 5.49919 9.36878 5.68294C9.28825 5.86668 9.24557 6.06479 9.2433 6.26538Z" fill="#2C2F38"/>
<path fill-rule="evenodd" clip-rule="evenodd" d="M15.2999 19.4644C11.0523 17.2309 10.4342 21.6707 10.4342 21.6707C10.337 22.2962 10.3788 22.9355 10.5566 23.5428C10.7344 24.1501 11.0438 24.7105 11.4627 25.1841C11.8817 25.6578 12.3999 26.0329 12.9804 26.2828C13.561 26.5328 14.1895 26.6513 14.8212 26.63C16.213 26.5581 17.5545 26.0834 18.6829 25.2635C19.8113 24.4435 20.6782 23.3134 21.1785 22.0104C21.1952 21.9605 21.2016 21.9078 21.1972 21.8553C21.1928 21.8029 21.1777 21.752 21.1528 21.7057C21.128 21.6593 21.0939 21.6186 21.0527 21.586C21.0115 21.5534 20.9641 21.5296 20.9133 21.5162L20.5887 21.4292C18.7332 20.9732 16.9356 20.3078 15.2303 19.4457L15.2999 19.4644Z" fill="#D77328"/>
</g>
<defs>
<clipPath id="clip0_2007_4774">
<rect width="34.0159" height="31.9045" fill="white" transform="translate(1.70087 -3.80957) rotate(15)"/>
</clipPath>
</defs>
</svg>
