<svg width="22" height="22" viewBox="0 0 22 22" fill="none" xmlns="http://www.w3.org/2000/svg">
<path d="M11.0148 22C4.9393 22 0.00790073 17.0751 9.48175e-06 11.0001C-0.00788176 4.92507 4.91089 3.41451e-08 10.9859 3.41451e-08C17.061 -0.000473515 21.9921 4.92476 22.0002 11.0004C22.0081 17.0754 17.0896 22.0005 11.0149 22H11.0148Z" fill="#2394E0"/>
<path d="M9.04297 1.06582C9.05796 1.06629 9.07232 1.06692 9.08732 1.06724L9.09773 1.03125L9.04297 1.06598V1.06582Z" fill="#A2E363"/>
<path d="M9.12738 1.37957L9.17268 1.31817L9.23502 1.33774L9.30162 1.29986L9.37359 1.23262C9.39537 1.21399 9.42788 1.19142 9.45108 1.17342C9.42757 1.14501 9.4181 1.14264 9.40942 1.14075C9.38953 1.13996 9.36917 1.13964 9.34929 1.13917L9.30446 1.11328C9.23965 1.11486 9.20361 1.12102 9.19635 1.13175C9.16242 1.18605 9.15784 1.19142 9.10087 1.20815C9.07593 1.24256 9.05242 1.27808 9.02843 1.31422C8.99791 1.38136 8.97998 1.41983 8.97461 1.42961L9.05463 1.41825L9.12754 1.37957H9.12738Z" fill="#A2E363"/>
<path d="M9.12531 0.840019L9.14173 0.77167C9.12894 0.771354 9.11584 0.771038 9.10322 0.770565L9.05966 0.811764L9.01989 0.858014L9.01452 0.817288L9.07149 0.747834L9.04387 0.714844L8.97017 0.77167C8.96244 0.783035 8.94571 0.795821 8.94523 0.809712C8.94429 0.857066 8.94081 0.865117 8.9375 0.873641L8.97143 0.901738L9.01973 0.888479L9.0554 0.882165L9.04451 0.91626L9.00016 0.984451L9.04908 0.966614L9.10259 0.96472L9.14425 0.958248L9.18402 0.917365C9.20265 0.897318 9.21985 0.878218 9.23879 0.857856C9.25599 0.846333 9.27588 0.839229 9.29182 0.826128C9.30444 0.815236 9.31297 0.792506 9.31344 0.78998C9.31391 0.786508 9.30902 0.760304 9.29671 0.759357C9.29071 0.75841 9.27193 0.765356 9.24242 0.782088L9.23658 0.739468C9.22253 0.738995 9.20896 0.738521 9.19539 0.738048C9.18907 0.775142 9.1695 0.873325 9.12531 0.840019Z" fill="#A2E363"/>
<path d="M8.83183 0.932868C8.85046 0.916925 8.8342 0.905086 8.82457 0.904297L8.81242 0.909664C8.80106 0.921503 8.78622 0.923397 8.77659 0.923397L8.74219 0.965069C8.75481 0.964122 8.77249 0.966963 8.7837 0.962543C8.78417 0.96207 8.81495 0.946601 8.83167 0.932868H8.83183Z" fill="#A2E363"/>
<path d="M10.9691 0.24263L10.9628 0.238526C10.9516 0.237579 10.9371 0.236947 10.9262 0.236474L10.9271 0.248312L10.908 0.268991L10.9044 0.282882L10.903 0.285723L10.8877 0.287617L10.8843 0.288406H10.8802L10.8776 0.291879L10.8749 0.295825L10.8731 0.299298L10.8705 0.299929L10.8719 0.306085L10.8695 0.3094H10.8659L10.8622 0.310821L10.8599 0.327395L10.8604 0.332446L10.8596 0.348074C10.8618 0.348074 10.8646 0.348074 10.8848 0.352967L10.8892 0.356755L10.8944 0.361649H10.9071L10.9274 0.357544L10.9303 0.35644L10.9468 0.358649L10.9546 0.377591L10.9587 0.382958L10.9623 0.388009L10.9669 0.393534C10.97 0.401427 10.9737 0.409477 10.9787 0.421947L10.9773 0.444046L10.9746 0.449097L10.9574 0.453201L10.9535 0.453675L10.9268 0.460778L10.9159 0.466303H10.8943L10.8725 0.461883C10.8621 0.460463 10.8468 0.462515 10.8368 0.466619L10.8364 0.474511C10.8368 0.477037 10.8368 0.479247 10.831 0.493295L10.8274 0.495979C10.8188 0.495979 10.8106 0.495979 10.7926 0.503082C10.7726 0.50908 10.7522 0.505923 10.7324 0.50908L10.726 0.511606L10.7197 0.513027L10.7153 0.516026L10.7134 0.521708L10.7139 0.527391L10.7129 0.533073L10.7103 0.539072L10.7062 0.542229H10.6804C10.6705 0.557067 10.6764 0.578008 10.6981 0.605053C10.7316 0.605211 10.7333 0.607579 10.7507 0.629204H10.8027L10.8244 0.641516L10.8326 0.643568C10.8425 0.650987 10.8578 0.657301 10.8705 0.657775H10.8881L10.9044 0.649882L10.9107 0.64641C10.9202 0.64641 10.9293 0.64641 10.9424 0.64562L10.9618 0.63978C10.964 0.63978 10.9655 0.63978 10.9786 0.641043L10.9822 0.640096C10.9839 0.649251 10.9866 0.657775 10.9866 0.680189L10.9827 0.683347L10.9636 0.701499H10.9522L10.9449 0.698342H10.9382L10.9314 0.693765L10.9251 0.692028H10.9088C10.9088 0.692028 10.9083 0.692028 10.8962 0.693765L10.875 0.701815H10.8673C10.8559 0.700236 10.8401 0.696764 10.8288 0.693765H10.8198L10.8162 0.712075H10.7822L10.7723 0.727387L10.7878 0.743961L10.795 0.750906C10.8263 0.763061 10.8592 0.770795 10.8873 0.786896L10.878 0.792421L10.8728 0.797788L10.8725 0.804417L10.878 0.811521L10.8965 0.818466L10.9028 0.826043L10.9096 0.832672L10.9123 0.839618L10.9186 0.843406L10.9273 0.847352L10.9341 0.850352L10.9576 0.861085L10.9651 0.864874L10.9741 0.872293L11.004 0.879238H11.0149L11.0198 0.874187L11.0149 0.866768C11.009 0.859349 11.0032 0.847668 10.9996 0.838039H11.019C11.0311 0.837724 11.048 0.840565 11.0587 0.844669L11.0665 0.8483L11.0725 0.84972L11.0811 0.85414L11.0856 0.851614L11.0819 0.837566H11.1073L11.1154 0.842775C11.1272 0.846563 11.1448 0.849247 11.1575 0.848142L11.1594 0.840565L11.1643 0.836934L11.1694 0.833304L11.1743 0.83141H11.1807L11.1866 0.829358L11.1889 0.822254C11.2043 0.809626 11.2132 0.815151 11.2331 0.827305L11.2404 0.830936L11.2585 0.830463L11.2789 0.832515H11.2847C11.2944 0.836145 11.3075 0.841986 11.3174 0.84609L11.3261 0.853351L11.3351 0.856823L11.3428 0.857928H11.3853L11.3925 0.859823C11.402 0.862506 11.4151 0.869136 11.4252 0.874029L11.4528 0.880659L11.4591 0.880185H11.4655L11.4939 0.902126L11.5166 0.909387C11.5183 0.90923 11.521 0.90923 11.5377 0.912702L11.5636 0.931644C11.5726 0.94885 11.5818 0.966056 11.5925 0.986102L11.608 0.999204L11.6166 1.00678L11.6275 1.01467L11.6351 1.01673H11.646L11.6572 1.02193L11.6676 1.02556L11.6796 1.03141L11.7022 1.05445L11.708 1.06266C11.7175 1.06803 11.7293 1.07702 11.7374 1.08444L11.7505 1.09249L11.7623 1.1037L11.7718 1.11175C11.7761 1.11417 11.7897 1.12696 11.8125 1.15011C11.8229 1.16037 11.8365 1.17489 11.8472 1.18499L11.8581 1.19099L11.8917 1.2142C11.8922 1.21609 11.8932 1.21783 11.8995 1.23377C11.9034 1.24313 11.9177 1.25971 11.9424 1.28349C11.9501 1.29833 11.9587 1.31317 11.9669 1.33306C11.9645 1.34474 11.9681 1.36163 11.974 1.37205C11.9871 1.37157 11.9998 1.37126 12.0129 1.3711C12.0193 1.38357 12.0256 1.39588 12.0166 1.40725L12.0003 1.4194C12.0098 1.44434 12.0311 1.46312 12.0365 1.4898C12.026 1.49027 12.0156 1.49027 12.0052 1.49027C12.0107 1.50274 12.0166 1.5149 12.0253 1.52974C12.0432 1.54931 12.0466 1.55326 12.0849 1.55878C12.0903 1.55862 12.0956 1.55862 12.1211 1.56241L12.1414 1.56699C12.1695 1.56604 12.1974 1.56557 12.2219 1.55562L12.2134 1.53526C12.2985 1.47986 12.3338 1.61924 12.4124 1.61813H12.416L12.4182 1.61798H12.42L12.4231 1.61876C12.4896 1.64702 12.5196 1.67212 12.5322 1.6879L12.5376 1.70763C12.5262 1.70795 12.5155 1.70811 12.5005 1.70858L12.4779 1.70416L12.4422 1.70511H12.4381C12.3575 1.71111 12.2874 1.63881 12.2033 1.68096C12.2276 1.71111 12.2615 1.72989 12.2896 1.75625L12.2787 1.77409L12.2584 1.77709C12.2584 1.77709 12.2041 1.80613 12.2593 1.85349C12.3051 1.89311 12.3711 1.88379 12.42 1.91663L12.4459 1.91031C12.45 1.89816 12.4577 1.88174 12.4657 1.87085C12.4812 1.86906 12.5027 1.86822 12.5301 1.86832C12.5183 1.84481 12.5066 1.82113 12.4812 1.7984C12.4599 1.79856 12.4388 1.79414 12.417 1.7935L12.4034 1.77677C12.3908 1.77598 12.374 1.77393 12.3617 1.77141L12.3608 1.75104C12.3731 1.75104 12.3848 1.75057 12.4097 1.75183C12.4432 1.76667 12.4768 1.77672 12.5106 1.78198C12.5227 1.78182 12.5346 1.78151 12.5649 1.78088C12.5915 1.78609 12.5985 1.78814 12.621 1.81466L12.6269 1.82492L12.6174 1.84228L12.6278 1.86012L12.6196 1.88111C12.621 1.88458 12.622 1.88774 12.6297 1.89784C12.6641 1.92057 12.6877 1.93867 12.7004 1.95214C12.7108 1.97266 12.7221 1.99271 12.7325 2.01323C12.7148 2.0137 12.6977 2.01434 12.6782 2.01465L12.6551 2.01165C12.6487 2.0216 12.6424 2.03643 12.6401 2.04812H12.6166C12.6108 2.04827 12.6035 2.04827 12.5907 2.04733L12.5728 2.0388L12.5537 2.0467C12.5701 2.08095 12.5854 2.11568 12.5827 2.14725C12.5686 2.14377 12.551 2.13983 12.5374 2.13777C12.5323 2.15577 12.5171 2.16871 12.4916 2.17661L12.4841 2.19476L12.4935 2.21465C12.4949 2.21938 12.4972 2.2238 12.5025 2.2358C12.5502 2.28899 12.6452 2.283 12.6709 2.36382C12.6573 2.36729 12.6401 2.37802 12.6319 2.38876C12.6319 2.39081 12.7088 2.57139 12.8125 2.52845L12.8193 2.50651H12.8396C12.8469 2.50651 12.8542 2.50651 12.8745 2.51062C12.8887 2.52103 12.8979 2.5385 12.9021 2.56302C12.8958 2.56334 12.8876 2.56334 12.8786 2.56539L12.8633 2.57833C12.9232 2.69704 12.964 2.75644 12.9858 2.75655C13.0052 2.73634 13.0052 2.70588 13.0226 2.68425C13.0361 2.68425 13.0541 2.68567 13.0667 2.68788C13.08 2.71929 13.0944 2.75102 13.1053 2.78891C13.0958 2.80879 13.0754 2.81716 13.0623 2.83373C12.9845 2.92876 13.6611 3.45014 13.7438 3.44319C13.7528 3.44272 13.7601 3.44256 13.7804 3.4342C13.7916 3.42883 13.8079 3.42362 13.8202 3.42109L13.8325 3.42062C13.9799 3.45156 14.2031 3.72196 14.2722 3.52543L14.2618 3.50539C14.2574 3.49686 14.2533 3.48786 14.2419 3.4645C14.2089 3.39189 14.2564 3.30744 14.2075 3.23688C14.1655 3.17674 14.1011 3.13302 14.0726 3.06356L14.0667 3.04367C14.0767 3.03562 14.0958 3.02931 14.1087 3.02694C14.1166 3.02663 14.1229 3.02647 14.145 3.01952C14.1583 3.01889 14.1742 3.01242 14.1854 3.00579C14.1596 2.96201 14.1537 2.92865 14.1677 2.90571L14.1876 2.90524L14.198 2.88677C14.1753 2.84605 14.1518 2.80595 14.1292 2.76254C14.1464 2.67762 14.0399 2.67383 14.02 2.6118C14.0599 2.60443 14.0858 2.59328 14.0978 2.57833C14.0887 2.55024 14.0688 2.5283 14.058 2.5013C14.0978 2.49988 14.1366 2.49815 14.1751 2.49625C14.1366 2.44653 14.1335 2.44164 14.1168 2.41196C14.1381 2.41101 14.1602 2.41038 14.1811 2.40896C14.2077 2.44958 14.2301 2.4811 14.2484 2.50351C14.2677 2.49972 14.2897 2.49872 14.3142 2.50051C14.3312 2.46784 14.3173 2.42774 14.3393 2.39554L14.3589 2.3946C14.3923 2.39444 14.3964 2.3886 14.4131 2.36981L14.3982 2.35213C14.3918 2.32835 14.3947 2.30441 14.4068 2.28031C14.4018 2.26863 14.3958 2.25158 14.3933 2.23864L14.4059 2.22712C14.3998 2.21165 14.3915 2.19123 14.381 2.16587L14.3999 2.14756C14.3936 2.14046 14.3873 2.13351 14.3805 2.12341L14.3759 2.10305L14.3901 2.08679C14.3816 2.07279 14.3611 2.04848 14.3286 2.01386L14.3267 2.01039C14.3279 2.01039 14.3301 2.01039 14.3484 2.01134L14.3541 2.01418L14.3611 2.01639L14.366 2.01734L14.381 2.02491L14.3868 2.02696L14.4059 2.03833C14.5022 2.06622 14.5664 2.07537 14.5986 2.0658C14.615 2.03233 14.5964 2.00045 14.5954 1.96793C14.6059 1.9624 14.6226 1.95814 14.6358 1.95719C14.6429 1.94804 14.6573 1.93952 14.6693 1.93652L14.6751 1.91694L14.6892 1.90589C14.6911 1.86027 14.6412 1.83139 14.6488 1.78482C14.6715 1.78324 14.6945 1.78135 14.7241 1.77219C14.7119 1.72184 14.6996 1.7119 14.6814 1.69737L14.6611 1.70053L14.6665 1.71963L14.6702 1.74552C14.6674 1.74552 14.6647 1.74599 14.6519 1.74552C14.6122 1.7351 14.5831 1.70195 14.5413 1.69706L14.5287 1.69801C14.4621 1.701 14.4078 1.68285 14.3538 1.63865C14.3398 1.62634 14.3248 1.6134 14.3267 1.59382L14.3289 1.59351C14.3611 1.59335 14.3658 1.59035 14.3873 1.57883C14.3851 1.56525 14.3773 1.54821 14.3696 1.53668C14.4476 1.55578 14.4914 1.62508 14.562 1.65523L14.5819 1.64307C14.5733 1.63202 14.562 1.61813 14.5542 1.60756C14.5718 1.59572 14.5931 1.59509 14.61 1.58341C14.6081 1.58199 14.375 1.42066 14.1452 1.33227L14.1406 1.3108C14.1889 1.33532 14.2187 1.3481 14.2299 1.34916C14.2331 1.34884 14.2375 1.34884 14.2615 1.3449C14.2313 1.32185 14.201 1.29959 14.1706 1.27734C14.1624 1.27181 14.1548 1.26613 14.1434 1.25871C14.0827 1.20962 14.0528 1.18531 14.0082 1.20536L14.0176 1.22382C14.005 1.22446 13.9932 1.22572 13.9741 1.21909C13.9643 1.20978 13.9556 1.19383 13.9532 1.18152C13.9476 1.17752 13.9214 1.16763 13.8746 1.15184L13.8647 1.13922C13.8792 1.1378 13.8937 1.13685 13.9089 1.13622C13.9316 1.15074 13.9532 1.16574 13.9755 1.1812C13.99 1.17994 14.0036 1.17931 14.0203 1.17126L14.0176 1.15058C14.0217 1.15011 14.0262 1.14995 14.0412 1.152C14.0531 1.15642 14.0722 1.15769 14.085 1.15437C14.0519 1.1228 14.0145 1.08744 13.9226 1.0644L13.9135 1.08192C13.8563 1.06692 13.8519 1.05982 13.8374 1.03788C13.8728 1.04498 13.8759 1.0434 13.899 1.03046L13.8791 1.00615L13.899 1.01278C13.904 1.01231 13.9089 1.01167 13.9185 0.996836C13.8275 0.94885 13.7266 0.92312 13.6387 0.869136L13.6346 0.85998L13.6561 0.856823C13.6302 0.842775 13.6043 0.829042 13.5659 0.809469C13.4646 0.765902 13.3534 0.747749 13.2536 0.698816C13.2492 0.696448 13.2451 0.69408 13.2334 0.683504L13.2148 0.671192L13.2325 0.662668C13.2383 0.662195 13.2429 0.662037 13.2647 0.660616C13.2966 0.67135 13.3189 0.679348 13.3316 0.684609L13.3447 0.691239C13.3938 0.719757 13.4496 0.747381 13.5121 0.77411L13.5094 0.766375C13.4375 0.730701 13.3655 0.695501 13.2877 0.657617C13.2754 0.651303 13.2613 0.64199 13.2501 0.634887C13.246 0.632835 13.2419 0.630625 13.2306 0.626363C13.2097 0.618155 13.188 0.609946 13.1662 0.602054L13.1469 0.611051C13.1431 0.611525 13.1397 0.611683 13.1179 0.611525C13.0895 0.598739 13.0617 0.586269 13.0336 0.570168L13.0544 0.575535L13.0626 0.566222C13.0617 0.566222 12.9626 0.522971 12.92 0.539703C12.9321 0.54507 12.9471 0.554383 12.9571 0.562749C12.9185 0.550595 12.8553 0.519814 12.8373 0.510501C12.8342 0.505239 12.7766 0.479141 12.6643 0.432207L12.6824 0.431103C12.6393 0.41437 12.6114 0.400901 12.5988 0.390693L12.5947 0.385642C12.4919 0.345706 12.3965 0.2903 12.2906 0.256047L12.2554 0.24626C12.2426 0.247365 12.2295 0.248944 12.2164 0.249733C12.1984 0.244208 12.1735 0.236158 12.1563 0.227634C12.1684 0.229844 12.1853 0.233001 12.1974 0.234579L12.1921 0.226213C12.136 0.209376 12.1005 0.198169 12.0857 0.192591L12.0889 0.185488C12.0545 0.17507 12.0305 0.169072 11.9785 0.157549C11.9378 0.148551 11.8962 0.149341 11.8559 0.142395L11.8239 0.140817H11.8234V0.141132H11.8226V0.141448C11.8629 0.156128 11.9086 0.15818 11.9451 0.182805C11.9244 0.179648 11.9039 0.175228 11.8823 0.174754C11.9136 0.184541 11.9359 0.192749 11.9492 0.199379L11.9489 0.199695H11.9479H11.9471H11.9452L11.9512 0.203799C11.9932 0.221004 12.0363 0.235842 12.0778 0.2551C12.0141 0.239631 11.9561 0.208376 11.8927 0.191329C11.8731 0.185488 11.8534 0.180121 11.8247 0.172229C11.7689 0.151077 11.7003 0.138133 11.6722 0.133082L11.6618 0.138607L11.6419 0.136081C11.7446 0.161653 11.7528 0.164336 11.7754 0.173018L11.7555 0.173807L11.7732 0.184383C11.7451 0.176175 11.7162 0.167651 11.6891 0.157864L11.6845 0.149814C11.6678 0.145394 11.644 0.141922 11.6272 0.146815C11.6185 0.147289 11.611 0.147762 11.5863 0.152655L11.605 0.162916H11.6032V0.163389L11.6059 0.167335H11.6042L11.6086 0.17507C11.5366 0.153603 11.519 0.143974 11.5046 0.135923C11.5245 0.134818 11.5434 0.133871 11.5538 0.129294L11.5335 0.122348C11.5485 0.121401 11.5628 0.120296 11.5796 0.116824C11.5669 0.113667 11.5497 0.108142 11.5374 0.104196L11.5275 0.0967766C11.5066 0.0926725 11.4858 0.0877792 11.4645 0.0841486L11.4606 0.0862007H11.4587C11.4587 0.0862007 11.3823 0.0746776 11.3288 0.0680479C11.3288 0.0680479 11.3278 0.0682058 11.3452 0.0724677C11.3411 0.0726256 11.337 0.0726256 11.3278 0.0726256C11.3143 0.0701 11.2966 0.0672587 11.2816 0.0661537L11.269 0.0667851L11.2655 0.0671008L11.2573 0.0675744L11.2527 0.0691529L11.2723 0.0742041L11.251 0.0756247L11.2246 0.0693107L11.2349 0.0688372C11.2222 0.0656802 11.2055 0.0615761 11.1924 0.0592084C11.215 0.0577877 11.2353 0.0565249 11.2521 0.0544729C11.2028 0.0454754 11.1919 0.0442126 11.1651 0.0410556L11.1564 0.0405821C11.1433 0.0388457 11.1258 0.0380565 11.1135 0.0380565C11.1126 0.0380565 11.1116 0.0380565 11.1031 0.0371094C11.0884 0.0371094 11.0692 0.0371094 11.0554 0.0375829C11.0658 0.0410556 11.0794 0.0454754 11.0903 0.0484746L11.0794 0.0473696L11.0813 0.0524208C11.1295 0.0654697 11.1586 0.0743619 11.1686 0.0790974L11.1482 0.0745198L11.132 0.0748355C11.1012 0.0681006 11.0795 0.0641017 11.0668 0.0628389L11.084 0.0726256C11.083 0.0726256 11.0821 0.0726256 11.0722 0.0715206L11.0513 0.0724677L11.0531 0.0735727L11.0608 0.0805181L11.0811 0.0866742L11.0906 0.0895155L11.096 0.091094C11.096 0.091094 11.0968 0.0907783 11.1113 0.0945667L11.1217 0.0975658L11.1317 0.100565C11.1479 0.105932 11.1643 0.112088 11.1799 0.118402L11.1722 0.116192L11.1632 0.112877L11.1537 0.109878H11.1519L11.1479 0.108931L11.1438 0.108457L11.1351 0.10609H11.1343L11.1258 0.104038L11.1227 0.103564L11.1181 0.102143L11.1096 0.102617L11.1135 0.105143L11.1208 0.1083L11.1448 0.117455L11.1542 0.120928C11.1646 0.123611 11.1782 0.127557 11.1886 0.130241L11.1923 0.131346L11.1986 0.132451L11.2077 0.133082H11.2118L11.2162 0.133713L11.224 0.136555L11.2484 0.1435L11.2792 0.154076L11.2904 0.158338L11.3005 0.161811L11.3092 0.165599L11.3349 0.177596L11.3204 0.17507L11.3136 0.173176L11.3109 0.173492L11.2904 0.168125L11.2846 0.166546L11.2797 0.165757L11.2638 0.161179C11.2511 0.158338 11.2339 0.154707 11.2213 0.151235L11.2162 0.150288L11.2063 0.146657L11.2013 0.145079L11.1913 0.141606L11.1818 0.139554L11.161 0.131977H11.1588L11.1528 0.130083L11.1487 0.129136L11.1427 0.128031L11.1342 0.128347C11.1214 0.125979 11.1042 0.125505 11.0916 0.126926C11.1037 0.131977 11.1206 0.138449 11.1337 0.143027H11.1361L11.1419 0.143974L11.1659 0.15376L11.1732 0.156286L11.1845 0.160864L11.2104 0.17144L11.2172 0.175386L11.2443 0.187856L11.2538 0.193381H11.2473L11.2423 0.192591L11.2379 0.191644L11.2284 0.188014L11.2199 0.184699L11.2118 0.181542L11.206 0.17949L11.1959 0.176333L11.1864 0.172229L11.1588 0.161969L11.1533 0.160548L11.1465 0.157707L11.1252 0.149656L11.1216 0.149183C11.1209 0.149183 11.117 0.148288 11.1099 0.146499L11.1026 0.143816L11.0935 0.13987L11.0854 0.136397L11.074 0.13324L11.0669 0.132293L11.0587 0.132766C11.0624 0.134661 11.0655 0.136555 11.0846 0.146815C11.0968 0.15234 11.1113 0.160706 11.1227 0.166862L11.1294 0.171597L11.1353 0.175228L11.1406 0.179174L11.1664 0.199379L11.1719 0.20443L11.1438 0.197958C11.1425 0.19638 11.1397 0.194959 11.1263 0.185015L11.1144 0.172545L11.1108 0.168598L11.1064 0.16481L11.1001 0.161179L11.0919 0.157864L11.0815 0.152498L11.0744 0.148709L11.0684 0.145079L11.0494 0.134976L11.0426 0.132766L11.0354 0.129136L11.0276 0.12661L11.0141 0.123453L11.0133 0.127084L11.0155 0.133082L11.0182 0.136713L11.0186 0.138291L11.019 0.140185H11.0163L11.0158 0.142079V0.1435L11.0131 0.147289L11.0104 0.146341L10.9969 0.146657L10.9956 0.148078L10.9951 0.149498L10.9928 0.153445C10.9928 0.153445 10.9924 0.153445 10.9738 0.15376L10.9724 0.154865L10.9715 0.155339L10.9732 0.158969L10.9768 0.162916L10.9822 0.166388L10.9855 0.167178L10.9923 0.168125H10.9947L11.0005 0.170177L11.0065 0.172702L11.0133 0.176333L11.0188 0.180279L11.0251 0.183752L11.0329 0.188487L11.0464 0.193381H11.0542L11.0592 0.194959L11.0769 0.203167L11.0815 0.205062L11.0987 0.212638L11.1009 0.217058H11.0901L11.0837 0.215322L11.0805 0.214533L11.065 0.209797L11.0579 0.205851L11.0512 0.202852L11.0452 0.199853L11.0287 0.195906L11.0253 0.194801H11.0229L11.0026 0.187698L10.9858 0.181226L10.9798 0.177122L10.9727 0.173176L10.9681 0.170019L10.9628 0.166862L10.9533 0.170019L10.9528 0.171597L10.9514 0.173492V0.176649L10.9497 0.17728L10.9473 0.184383L10.946 0.185488L10.9587 0.200642L10.9647 0.204904L10.97 0.20885L10.9737 0.212796C10.9836 0.224161 10.9926 0.235211 11.0022 0.247681C10.9954 0.247681 10.9896 0.247681 10.9741 0.244682L10.9691 0.241525V0.24263Z" fill="#A2E363"/>
<path d="M10.2075 0.236962C10.1994 0.246328 10.1956 0.254062 10.1962 0.260166C10.2161 0.26206 10.2298 0.277371 10.249 0.278476L10.2885 0.252905L10.3106 0.237909L10.3426 0.233963L10.307 0.253378L10.2708 0.27895L10.2505 0.306889C10.3035 0.30731 10.3437 0.297892 10.3712 0.278634L10.3979 0.28337C10.4116 0.283843 10.4245 0.283843 10.4378 0.284317L10.4717 0.26206L10.4957 0.242644L10.5088 0.228438C10.5224 0.229227 10.5238 0.229543 10.5532 0.213916L10.5745 0.21802L10.5581 0.220072C10.5368 0.233016 10.5164 0.246591 10.4965 0.260166L10.5304 0.258272L10.5435 0.262534L10.5566 0.264901L10.5417 0.282896C10.5304 0.282896 10.5191 0.28258 10.5072 0.28258L10.4788 0.284475L10.4571 0.293156C10.4354 0.296156 10.4154 0.304837 10.3946 0.308941H10.3747L10.3516 0.312888L10.3371 0.336723L10.357 0.341774L10.3647 0.357243L10.3611 0.382657L10.4072 0.393707L10.3827 0.398127C10.3728 0.397495 10.3611 0.395917 10.3515 0.394496C10.3285 0.352087 10.3036 0.329304 10.2767 0.326147L10.2314 0.31857L10.2061 0.345089L10.2079 0.367819L10.2138 0.398758L10.2377 0.442167L10.2617 0.462056C10.2776 0.464423 10.2992 0.467107 10.3155 0.469159C10.3024 0.484628 10.2765 0.481313 10.2644 0.498835C10.259 0.510358 10.2536 0.521881 10.2486 0.533404L10.2178 0.483681L10.1862 0.474526L10.1373 0.479577L10.1007 0.487785L10.0541 0.507043C10.0461 0.517303 10.0383 0.52851 10.0316 0.539086L10.0161 0.562606L10.0461 0.572551L10.0977 0.573498L10.1438 0.567973L10.0877 0.594965L10.0814 0.629219C10.128 0.639163 10.1335 0.640268 10.2195 0.584547L10.1865 0.624325L10.1296 0.659368L10.0821 0.662051C10.0644 0.651949 10.0331 0.64453 10.0251 0.626851C10.0238 0.624325 10.0148 0.606173 10.002 0.601121C9.99936 0.600174 9.99574 0.598754 9.93766 0.601595C9.91872 0.656632 9.8872 0.688465 9.84312 0.697094L9.79688 0.732926L9.80193 0.785332L9.83759 0.810746C9.86016 0.803169 9.88826 0.786911 9.9113 0.783754C9.94397 0.779492 9.96606 0.810272 9.99826 0.809167C10.0222 0.808694 10.0344 0.783596 10.0574 0.780281C10.0657 0.791015 10.0966 0.794803 10.1504 0.791646C10.1652 0.791646 10.1802 0.791804 10.1952 0.791804C10.1949 0.797697 10.1887 0.809799 10.1766 0.828109L10.1783 0.83395C10.1955 0.838528 10.2176 0.841685 10.2418 0.831424H10.277C10.3459 0.801643 10.3872 0.776387 10.401 0.755656L10.3974 0.718404L10.3471 0.741924L10.3466 0.691569L10.3946 0.682098L10.4181 0.636795L10.414 0.59607H10.4433C10.4897 0.600069 10.5152 0.59928 10.5197 0.593702C10.5429 0.56671 10.5093 0.544927 10.5085 0.520618L10.5145 0.518724C10.5267 0.519197 10.5394 0.519197 10.5584 0.519197C10.5666 0.520986 10.573 0.520986 10.5775 0.519197C10.5787 0.512726 10.5819 0.501202 10.562 0.475946C10.5394 0.474052 10.5226 0.454953 10.4986 0.456057L10.4665 0.475157L10.4389 0.492205V0.464423C10.4501 0.45953 10.4656 0.4529 10.4758 0.447849C10.4768 0.443219 10.4888 0.433432 10.512 0.418489H10.5413L10.5522 0.439799C10.5861 0.446534 10.6196 0.437799 10.6526 0.413596L10.6201 0.379658L10.6581 0.37729L10.6722 0.400652L10.7047 0.397811L10.7405 0.382342L10.7225 0.346825L10.6988 0.334829H10.7637L10.7746 0.313203L10.8008 0.30168C10.8207 0.277529 10.8551 0.265691 10.865 0.232858L10.8893 0.230174L10.8957 0.217704L10.8736 0.198447C10.8718 0.200341 10.8554 0.216126 10.8414 0.219598C10.8308 0.212758 10.8136 0.210285 10.7898 0.212179L10.7888 0.1945L10.8101 0.18645H10.8377C10.8463 0.18645 10.8564 0.18645 10.8668 0.184871C10.8772 0.177137 10.892 0.176821 10.9002 0.16514L10.9228 0.16072C10.9124 0.142883 10.9106 0.140831 10.9083 0.138464L10.884 0.119679L10.8736 0.126467L10.8564 0.122994L10.8382 0.107052L10.8074 0.0915822L10.8002 0.0978962H10.7826L10.7677 0.107525L10.7609 0.0933186L10.741 0.0956863C10.7374 0.0944235 10.733 0.0902668 10.7279 0.0832162C10.7184 0.0805327 10.7089 0.0767443 10.6998 0.0742188C10.7017 0.0855839 10.7017 0.0873203 10.7017 0.0941078L10.6957 0.0966334L10.6826 0.0819534L10.6712 0.0855839C10.67 0.0943183 10.6685 0.0998956 10.6668 0.102316C10.6532 0.101685 10.652 0.0879517 10.6436 0.081322L10.6232 0.0767443C10.6206 0.0786385 10.6125 0.083374 10.6075 0.108946H10.5994L10.5909 0.0917401H10.577L10.5675 0.103895L10.5525 0.102316C10.5508 0.102 10.5352 0.105526 10.506 0.112892L10.4798 0.132465L10.5025 0.136569C10.5052 0.141726 10.5128 0.147619 10.5251 0.154249L10.5178 0.176505C10.5109 0.177137 10.5048 0.176769 10.4997 0.1754L10.4932 0.155669C10.4842 0.155511 10.4769 0.155511 10.4675 0.155196L10.4612 0.152039C10.4602 0.143041 10.4679 0.135622 10.4694 0.127256L10.4498 0.130255L10.4495 0.117627L10.4435 0.118259L10.4299 0.121416C10.4154 0.132465 10.4028 0.146514 10.3865 0.155827H10.372L10.3649 0.146356H10.3562C10.3306 0.158353 10.3143 0.165298 10.3073 0.167192H10.2964L10.2842 0.166719L10.2607 0.181872L10.24 0.179347L10.2138 0.196552L10.2243 0.200499L10.2277 0.205392L10.1948 0.229227L10.2074 0.23712L10.2075 0.236962Z" fill="#A2E363"/>
<path d="M8.45162 1.2558L8.52501 1.19329L8.5277 1.1633L8.45115 1.13867C8.43158 1.14956 8.40633 1.1633 8.38739 1.17419C8.3855 1.21144 8.39228 1.21996 8.39449 1.22249C8.39639 1.22486 8.40049 1.22991 8.38281 1.28784L8.45162 1.2558Z" fill="#A2E363"/>
<path d="M8.97369 1.15034L8.97732 1.11719L8.92224 1.11924L8.87742 1.16407L8.85485 1.16296L8.82723 1.14102L8.76378 1.15555L8.73396 1.20085L8.73427 1.2531C8.61448 1.35901 8.61306 1.3437 8.60943 1.27914L8.56556 1.28182L8.51758 1.32902L8.53652 1.37069L8.55104 1.40274C8.56461 1.40874 8.58371 1.41694 8.59807 1.42294C8.58891 1.4613 8.58039 1.48356 8.57676 1.48829L8.57077 1.50424C8.57266 1.52034 8.62064 1.55033 8.62364 1.55001C8.63863 1.54954 8.69702 1.50929 8.71549 1.49713L8.80513 1.49524L8.88831 1.42373L8.89825 1.36501L8.88831 1.31118L8.86511 1.27504C8.9476 1.24526 8.98369 1.20369 8.97338 1.15034H8.97369Z" fill="#A2E363"/>
<path d="M9.82645 0.667758C9.83086 0.631137 9.83039 0.62435 9.83008 0.619141L9.76442 0.63019L9.70508 0.674862L9.76837 0.689857C9.78652 0.688437 9.80877 0.674388 9.82629 0.667758H9.82645Z" fill="#A2E363"/>
<path d="M9.5796 0.581712L9.62443 0.57666L9.66972 0.56861L9.70413 0.54509L9.70492 0.509258L9.6612 0.50184L9.66436 0.466797L9.62032 0.485739L9.5987 0.517467L9.54883 0.571293L9.5796 0.581712Z" fill="#A2E363"/>
<path d="M9.35361 0.904751L9.26902 0.932691L9.22656 0.969943L9.22925 1.02124C9.24455 1.02172 9.26034 1.02235 9.27628 1.02314L9.30342 1.04745L9.35598 1.02914L9.40932 0.971838L9.38991 0.94011L9.39796 0.898438L9.35361 0.904909V0.904751Z" fill="#A2E363"/>
<path d="M9.33266 0.608333L9.3385 0.580078L9.29226 0.581499L9.25391 0.614963L9.28594 0.619856L9.33266 0.608333Z" fill="#A2E363"/>
<path d="M9.77024 0.363978L9.81285 0.329409L9.80796 0.318991L9.78713 0.318359C9.77213 0.32783 9.75588 0.337459 9.74057 0.347088L9.76582 0.348035L9.73047 0.375817L9.77024 0.36382V0.363978Z" fill="#A2E363"/>
<path d="M9.31451 0.545888L9.35839 0.532155L9.37512 0.535944L9.41773 0.543994L9.39958 0.590244L9.42625 0.603819L9.46965 0.577142L9.50722 0.540837L9.51353 0.516844L9.54841 0.48259L9.54162 0.464122L9.5462 0.444706L9.51495 0.448968L9.52805 0.426869L9.53389 0.404297L9.50406 0.408875L9.42404 0.42245L9.39232 0.449442L9.41678 0.447863L9.41584 0.461912L9.37007 0.496323C9.35886 0.495534 9.34797 0.495376 9.33566 0.494745L9.30078 0.526946L9.32745 0.524421L9.31435 0.545888H9.31451Z" fill="#A2E363"/>
<path d="M9.61338 0.601562L9.55909 0.628397L9.5332 0.653811L9.59523 0.652232L9.63563 0.643708L9.68361 0.635342C9.69355 0.624609 9.70208 0.61419 9.71155 0.604088C9.69497 0.603457 9.67714 0.602983 9.65994 0.60251C9.64415 0.602036 9.62869 0.602036 9.61338 0.601562Z" fill="#A2E363"/>
<path d="M9.55725 0.779329L9.57982 0.747917L9.57524 0.709717C9.55899 0.709401 9.54273 0.709085 9.52647 0.708296L9.51369 0.691406L9.45861 0.699299L9.41016 0.742865L9.42689 0.778855L9.44582 0.811214L9.49617 0.816265L9.55725 0.779171V0.779329Z" fill="#A2E363"/>
<path d="M9.50331 1.06215L9.59643 1.05615C9.61537 1.04747 9.63952 1.03594 9.65767 1.02742C9.68471 1.07109 9.72679 1.08993 9.78393 1.08393C9.82133 1.0844 9.85889 1.08535 9.89614 1.08598L9.95311 1.07083L9.98657 1.04336L10.0091 1.07509C10.124 1.06909 10.1829 1.05452 10.1857 1.03137C10.1884 1.0159 10.1903 1.00501 10.2301 0.992062L10.2314 0.991588L10.2372 0.930816L10.1644 0.904139L10.0857 0.880935L10.0114 0.90556L9.90356 0.930184L9.83838 0.936341L9.76199 0.916136L9.69002 0.918346L9.66729 0.862151L9.69728 0.808798L9.7118 0.759549C9.68923 0.759233 9.66698 0.758602 9.64425 0.757812C9.62894 0.760654 9.60764 0.763811 9.59185 0.766179C9.55334 0.834212 9.55334 0.837527 9.53835 0.906981L9.46875 0.966806L9.47222 1.01321L9.50316 1.06183L9.50331 1.06215Z" fill="#A2E363"/>
<path d="M9.83381 0.421391L9.86648 0.416656L9.90483 0.406869L9.94381 0.405133L9.93166 0.432756C9.89725 0.443648 9.89047 0.444437 9.88557 0.444911L9.85164 0.444122L9.80997 0.459907L9.81818 0.485478L9.79688 0.525888L9.84485 0.545303L9.90135 0.538042L9.93481 0.553669L9.96875 0.53015L9.98926 0.530466C9.99416 0.529045 10.0005 0.527466 10.0155 0.501895L10.044 0.47064L10.063 0.487846C10.0742 0.480901 10.0816 0.470009 10.0923 0.463695C10.0955 0.462117 10.0991 0.459907 10.1092 0.462117C10.1173 0.463695 10.1231 0.471745 10.1327 0.469062C10.134 0.468588 10.1436 0.465905 10.1689 0.445542C10.1788 0.431967 10.1873 0.418234 10.197 0.405133C10.1704 0.389558 10.1562 0.380666 10.1543 0.378456L10.1657 0.353358L10.1829 0.333627L10.1766 0.317684C10.1543 0.331575 10.1509 0.33268 10.1458 0.333153C10.1327 0.318789 10.1626 0.311054 10.1644 0.297006C10.1662 0.281694 10.1409 0.288008 10.1431 0.273012C10.1431 0.268119 10.1441 0.263857 10.154 0.253913C10.1739 0.218554 10.1749 0.216344 10.1771 0.211135L10.1761 0.208452L10.1662 0.207031C10.1345 0.21224 10.1204 0.220133 10.1133 0.224553L10.1332 0.224868L10.1354 0.227078C10.1105 0.250124 10.0988 0.247125 10.093 0.245704L10.0668 0.244757C10.0406 0.252334 10.0387 0.253123 10.0391 0.266698C10.0391 0.270171 10.0391 0.273328 10.0125 0.288955L9.99116 0.285956L9.96796 0.290218L9.92945 0.319894L9.89283 0.3341C9.87973 0.343256 9.86569 0.353516 9.85211 0.363303L9.87247 0.36646C9.85843 0.377509 9.84359 0.388401 9.83002 0.399292L9.83412 0.421391H9.83381Z" fill="#A2E363"/>
<path d="M10.2851 1.34618L10.3457 1.30293L10.4398 1.27751L10.3592 1.20916L10.2212 1.19985C10.1901 1.19953 10.1584 1.19938 10.1272 1.19922L10.123 1.27514L10.132 1.33592L10.2851 1.34602V1.34618Z" fill="#A2E363"/>
<path d="M12.8609 5.75081C12.8301 5.78506 12.8075 5.81253 12.7937 5.84663C12.7826 5.87125 12.779 5.90156 12.7826 5.93786C12.7851 5.9647 12.8033 5.98664 12.8083 6.01268C12.9625 6.01047 13.1175 6.00811 13.2714 6.00495C13.3097 6.00842 13.3279 6.01142 13.3842 6.06509C13.478 6.15459 13.516 6.17022 13.5653 6.19169C13.573 6.18079 13.5744 6.17874 13.5984 6.16801C13.611 6.16264 13.6442 6.14812 13.5975 6.00574C13.5787 5.94818 13.5815 5.89303 13.6057 5.84031L13.6137 5.82326C13.6041 5.80464 13.593 5.77938 13.5842 5.7606C13.5345 5.75912 13.5017 5.75444 13.4857 5.74655C13.4843 5.74655 13.3849 5.69572 13.353 5.66163C13.3369 5.64284 13.3258 5.63148 13.3074 5.62564C13.2657 5.61238 13.2217 5.62169 13.1799 5.61206C13.1548 5.60701 13.135 5.59059 13.1114 5.58239C13.1217 5.51409 13.1303 5.47257 13.1372 5.45784C13.1467 5.4389 13.1679 5.44585 13.1829 5.43811C13.1933 5.43259 13.2182 5.37308 13.1778 5.33267C13.1623 5.31672 13.1612 5.31483 13.1557 5.30331C13.1393 5.30678 13.124 5.30094 13.1077 5.30078C13.1017 5.30078 13.0484 5.31799 13.038 5.3363C13.0261 5.35698 13.0452 5.37245 13.0479 5.39028C13.0515 5.41554 13.0455 5.44048 13.0455 5.46558C13.0462 5.48326 13.0452 5.48704 13.0424 5.49304C13.0421 5.4943 12.9718 5.6239 12.8606 5.75113L12.8609 5.75081Z" fill="#A2E363"/>
<path d="M13.1529 0.271114C13.1381 0.273482 13.1237 0.273482 13.1096 0.272535C13.2165 0.296686 13.2197 0.297633 13.2432 0.305367C13.2365 0.305052 13.2022 0.297685 13.1401 0.283268C13.128 0.280111 13.1152 0.277586 13.1033 0.274587C13.092 0.272061 13.0806 0.269693 13.0688 0.266852C13.0822 0.269851 13.0958 0.271745 13.1096 0.272535C13.0958 0.269378 13.0804 0.265905 13.0628 0.261959C13.0511 0.259591 13.0388 0.256592 13.0266 0.253908C13.0197 0.25233 13.0124 0.250594 13.0055 0.249015C13.0225 0.254382 13.0397 0.259749 13.0569 0.264169C13.0481 0.262117 13.0393 0.260222 13.0301 0.257855C12.9884 0.249015 12.9634 0.244122 12.955 0.243175C12.9925 0.253908 13.0311 0.262748 13.0689 0.273166V0.276639C13.0481 0.271745 13.0269 0.26701 13.0064 0.262117C12.9739 0.254066 12.9431 0.245227 12.9102 0.238281C12.9144 0.23986 12.925 0.243648 12.9812 0.256908L12.9758 0.262117C13.1327 0.320995 13.2997 0.336937 13.4603 0.383661C13.4026 0.371506 13.3465 0.353827 13.2881 0.343251C13.3156 0.35288 13.5134 0.403392 13.5383 0.406076C13.5326 0.403129 13.4952 0.392132 13.4259 0.373085C13.4736 0.371349 13.5148 0.395026 13.5591 0.404181L13.5664 0.402287C13.5536 0.395973 13.4545 0.36614 13.4184 0.356826C13.3961 0.350828 13.3779 0.346251 13.3593 0.341199L13.354 0.337884C13.3851 0.34483 13.4309 0.356511 13.4913 0.372927L13.4971 0.370086L13.4464 0.354143L13.4739 0.360773C13.5044 0.368349 13.5342 0.37782 13.5653 0.384608C13.5757 0.387607 13.5861 0.390133 13.5965 0.39329L13.589 0.393921L13.5861 0.394553L13.5716 0.393132C13.5768 0.395868 13.5866 0.399656 13.6011 0.404497C13.6042 0.411232 13.6253 0.420177 13.6644 0.431332C13.69 0.439224 13.7155 0.446643 13.7419 0.454062L13.7293 0.447432L13.732 0.446012L13.7537 0.449326C13.748 0.444696 13.7245 0.43533 13.6832 0.421229L13.678 0.418861C13.6936 0.420913 13.8213 0.464638 13.8225 0.465111L13.823 0.465901C13.8145 0.464638 13.8076 0.464954 13.8023 0.466848C13.9254 0.525568 14.062 0.539143 14.1906 0.578763L14.1829 0.574659C14.181 0.573712 13.9502 0.494945 13.8631 0.464638C13.8025 0.443328 13.7436 0.425965 13.6838 0.40939C13.6743 0.402287 13.6712 0.399919 13.4575 0.34483L13.4652 0.339779C13.6303 0.382609 13.7824 0.424597 13.9215 0.465743L13.9237 0.464164C13.8939 0.451536 13.8633 0.442697 13.8319 0.432437C13.8454 0.434489 13.85 0.435594 13.9649 0.469847L13.9663 0.467321C13.9574 0.463954 13.9293 0.455114 13.8822 0.440803L13.8803 0.434962L13.8633 0.428017L13.827 0.417441C13.7695 0.402919 13.7649 0.401498 13.755 0.399762L13.7616 0.402603C13.7526 0.40134 13.7102 0.390554 13.6346 0.370244L13.6319 0.375137C13.5519 0.353512 13.472 0.335675 13.3926 0.316417C13.3917 0.316417 13.278 0.292266 13.256 0.288951C13.2623 0.291582 13.2732 0.294949 13.2886 0.299053C13.2717 0.297948 13.2567 0.294791 13.247 0.292582C13.2135 0.284531 13.1835 0.277586 13.1532 0.27064L13.1529 0.271114Z" fill="#A2E363"/>
<path d="M12.8895 0.196796C12.8369 0.186378 12.7839 0.177697 12.7305 0.168541C12.7761 0.179906 12.8232 0.184011 12.8677 0.197586C12.8582 0.196165 12.8491 0.194113 12.8405 0.193008L12.7581 0.17596L12.7392 0.172961C12.7261 0.170435 12.7133 0.168068 12.7012 0.166016C12.7166 0.169488 12.7315 0.172487 12.7474 0.175487V0.175802L12.7285 0.172961L12.7271 0.174224C12.8543 0.197901 12.8931 0.206899 12.9313 0.214791C12.8801 0.207846 12.8314 0.195218 12.7815 0.187168C12.7488 0.181643 12.7476 0.181169 12.7384 0.185431C12.7806 0.196007 12.8705 0.21416 12.9116 0.220158L12.9123 0.219685C12.9223 0.220632 12.9322 0.223157 12.9422 0.223947L12.9191 0.217001C12.9408 0.219369 12.9597 0.223315 13.0028 0.231997L12.9977 0.236574C13.0252 0.242099 13.0523 0.24794 13.0792 0.253938C13.1017 0.257726 13.1249 0.263567 13.1475 0.265935L13.1516 0.262935L13.1429 0.260094C13.1701 0.259305 13.1928 0.282351 13.2204 0.272564C13.193 0.258831 13.1603 0.261988 13.1314 0.248887C13.144 0.250939 13.1555 0.25378 13.1677 0.254412C13.1576 0.250834 13.0869 0.234575 12.9557 0.205636C12.9441 0.202637 12.8689 0.187483 12.8626 0.189535C12.8716 0.191587 12.8816 0.193639 12.8901 0.196165L12.8898 0.197112L12.8895 0.196796Z" fill="#A2E363"/>
<path d="M12.916 0.230627C12.9455 0.238677 12.9747 0.244675 13.0039 0.250989C12.9761 0.24215 12.9482 0.233626 12.9192 0.230469L12.916 0.230784V0.230627Z" fill="#A2E363"/>
<path d="M15.4197 2.47669L15.4238 2.45506C15.4933 2.43959 15.561 2.50684 15.6164 2.56082C15.5798 2.55419 15.5108 2.54172 15.4597 2.57266C15.4805 2.59318 15.5076 2.62065 15.5285 2.6418L15.5507 2.62775C15.5719 2.62601 15.5927 2.62444 15.6145 2.62286L15.6331 2.63391C15.6598 2.665 15.6874 2.69563 15.7145 2.7272L15.771 2.77297C15.7815 2.77218 15.7928 2.77187 15.8037 2.77108C15.8336 2.75992 15.8617 2.7534 15.888 2.75151C15.8982 2.75072 15.9087 2.74977 15.921 2.74898C15.9768 2.73383 16.0008 2.78639 16.0412 2.8036C16.0928 2.82538 16.1362 2.81386 16.1579 2.80517L16.1497 2.75308C16.132 2.72183 16.1223 2.70136 16.1205 2.69168C16.1151 2.67463 16.1153 2.674 16.1208 2.6669L16.1462 2.66658C16.153 2.63849 16.113 2.61133 16.1416 2.58434C16.1473 2.57866 16.1839 2.57319 16.2515 2.56793C16.2199 2.53715 16.1894 2.50652 16.1568 2.47637C16.1366 2.46201 16.1206 2.44386 16.0976 2.43328C16.0599 2.41813 16.038 2.41181 16.0319 2.41434L16.0225 2.41576C15.9899 2.39208 15.971 2.35593 15.9439 2.32847C15.9222 2.30732 15.8973 2.29137 15.875 2.27148C15.8537 2.27354 15.8334 2.27559 15.8127 2.27764C15.7901 2.28317 15.7968 2.29958 15.8006 2.30858C15.8006 2.30889 15.8151 2.34804 15.7964 2.3553L15.8047 2.37377C15.7679 2.3793 15.7349 2.35688 15.6988 2.35988C15.6448 2.36398 15.6462 2.38814 15.6467 2.40376C15.6476 2.4216 15.6426 2.42286 15.6318 2.42602C15.6132 2.42744 15.5938 2.4287 15.5747 2.43028C15.5602 2.41544 15.5457 2.40013 15.5308 2.38514C15.5163 2.37077 15.5021 2.35609 15.4877 2.34189C15.4683 2.32484 15.4443 2.31474 15.4222 2.29927L15.4041 2.31237C15.4181 2.32705 15.4327 2.34157 15.447 2.35609C15.4067 2.34346 15.3851 2.33741 15.382 2.33794C15.3648 2.33983 15.3105 2.34725 15.3069 2.37077C15.3015 2.41481 15.3894 2.49674 15.4199 2.47669H15.4197Z" fill="#A2E363"/>
<path d="M21.8906 9.43164C21.9143 9.59675 21.9351 9.77007 21.9514 9.95097C21.9369 9.74923 21.9206 9.61696 21.8906 9.43164Z" fill="#A2E363"/>
<path d="M13.1309 0.267578L13.1504 0.27184L13.1498 0.271682L13.1309 0.267578Z" fill="#A2E363"/>
<path d="M8.20123 0.809444L8.10938 0.850169L8.13636 0.86406L8.27493 0.794922L8.20123 0.809444Z" fill="#A2E363"/>
<path d="M18.7014 3.19853L18.6722 3.1698C18.6708 3.16854 18.6694 3.16728 18.668 3.16602C18.6694 3.16744 18.6705 3.16854 18.6719 3.1698L18.7014 3.19853Z" fill="#A2E363"/>
<path d="M21.3025 7.17029C21.3197 7.21054 21.3348 7.25001 21.3504 7.28852C21.3495 7.28584 21.3485 7.28316 21.3476 7.28047L21.343 7.26942L21.3367 7.25458L21.3309 7.23817L21.3269 7.23075L21.3214 7.21465C21.31 7.18608 21.2988 7.15767 21.2878 7.12909C21.2837 7.11962 21.2805 7.11031 21.2684 7.07937C21.2625 7.06501 21.2553 7.0467 21.2499 7.03328C21.2155 6.94473 21.171 6.8598 21.1404 6.76951C21.1323 6.75278 21.1232 6.73005 21.115 6.71332C21.0941 6.68317 21.0821 6.64844 21.0645 6.61719C21.1533 6.81845 21.2389 7.01892 21.3143 7.20123C21.3102 7.19081 21.3064 7.18055 21.3023 7.17014L21.3025 7.17029Z" fill="#A2E363"/>
<path d="M9.15747 0.610918L9.16284 0.582031C9.12022 0.606656 9.09087 0.627176 9.06641 0.680529L9.11344 0.665692L9.15731 0.61076L9.15747 0.610918Z" fill="#A2E363"/>
<path d="M21.3125 7.20312C21.3365 7.26453 21.3592 7.32483 21.381 7.38307L21.3853 7.39539C21.3971 7.42743 21.4077 7.4601 21.4197 7.49246L21.4246 7.50856L21.4296 7.51946C21.4238 7.50193 21.4151 7.47857 21.4097 7.46089C21.4047 7.44795 21.3988 7.43059 21.3939 7.41733C21.3894 7.40265 21.3837 7.38828 21.3782 7.37376C21.3744 7.36161 21.3699 7.34835 21.3658 7.3373L21.3617 7.32514L21.3557 7.30983L21.354 7.30368C21.3531 7.30147 21.3521 7.2991 21.3512 7.29689V7.29657C21.3502 7.29452 21.3494 7.29231 21.3485 7.29026C21.3486 7.29073 21.3488 7.29105 21.349 7.29152C21.3373 7.26295 21.3248 7.2328 21.3125 7.20312Z" fill="#A2E363"/>
<path d="M18.6275 3.14888C18.6374 3.16641 18.6442 3.18551 18.6575 3.20097L18.6442 3.19529C18.6669 3.22434 18.6796 3.23965 18.7358 3.29521C18.755 3.28021 18.7566 3.26096 18.744 3.24075C18.744 3.24075 18.7441 3.24091 18.7443 3.24107C18.7571 3.26143 18.7567 3.28179 18.7425 3.302L18.7339 3.29774V3.30074C18.7329 3.3001 18.7272 3.29584 18.7113 3.28242L18.6873 3.2578L18.6849 3.25685H18.6846L18.6832 3.26001C18.6832 3.26001 18.6864 3.27311 18.7329 3.31289L18.7414 3.31747V3.31715L18.7419 3.31699V3.31652C18.788 3.35472 18.8085 3.41628 18.8642 3.44612C18.857 3.42886 18.8391 3.4045 18.8107 3.37303C18.8355 3.3844 18.922 3.4709 19.07 3.63254L19.0732 3.64311C19.0639 3.6368 19.038 3.6127 18.9954 3.57082C18.9818 3.55977 18.9809 3.5604 18.9809 3.56087C18.969 3.54935 18.9545 3.53404 18.9438 3.52267C18.9292 3.5102 18.9283 3.51162 18.9266 3.51257C19.0637 3.67168 19.1865 3.84216 19.3356 3.98975L19.3574 4.01895C19.3448 4.01138 19.3266 4.00632 19.3113 4.00743C19.3148 4.01301 19.3552 4.06126 19.4324 4.15218L19.4352 4.16117C19.3939 4.12566 19.3541 4.08714 19.3121 4.05194C19.3296 4.10877 19.3633 4.15802 19.3882 4.21074L19.3718 4.23015L19.3827 4.25178L19.3587 4.2603C19.3296 4.23347 19.3276 4.23126 19.276 4.16702C19.2615 4.15439 19.257 4.15581 19.2533 4.15723L19.2634 4.18106C19.2484 4.19401 19.2438 4.19559 19.2397 4.19716C19.2445 4.21653 19.264 4.2481 19.2981 4.29187L19.2836 4.29614C19.2625 4.28814 19.2339 4.26262 19.1977 4.21958L19.1939 4.22779L19.1792 4.23205C19.1663 4.21547 19.1535 4.1989 19.1406 4.1828C19.1302 4.17112 19.1175 4.15565 19.1081 4.14381C19.1065 4.12392 19.1161 4.12108 19.1251 4.11887C19.1297 4.11992 19.1523 4.13281 19.1927 4.15754C19.1927 4.10893 19.0617 3.9596 19.0053 3.89788C18.9889 3.88478 18.985 3.88636 18.9809 3.88778C18.9755 3.90493 18.9859 3.93366 19.0121 3.97396L19.0097 3.98186V3.98217C18.9923 3.96786 18.9647 3.93392 18.927 3.88036C18.9043 3.85305 18.8926 3.839 18.8805 3.82495L18.856 3.82606C18.7779 3.73103 18.7152 3.66142 18.6679 3.61722C18.6691 3.67737 18.7515 3.70452 18.7351 3.77176C18.7451 3.78423 18.7591 3.79954 18.7709 3.81043C18.7889 3.83032 18.793 3.83458 18.7976 3.83916C18.8805 3.94034 18.9524 4.04973 19.0443 4.14381C19.055 4.15739 19.0626 4.1667 19.0697 4.17585C19.0855 4.19748 19.1008 4.21863 19.1158 4.24042C19.1464 4.2753 19.1805 4.30687 19.2121 4.34191C19.2324 4.36906 19.246 4.38722 19.2605 4.406L19.2484 4.409L19.2329 4.42905L19.2173 4.43362C19.2037 4.43157 19.1846 4.4322 19.1706 4.43599C19.1698 4.45004 19.1742 4.46961 19.1788 4.48208L19.1674 4.50545C19.1947 4.55596 19.2115 4.58926 19.2181 4.60536H19.1914L19.181 4.60773L19.172 4.60963C19.1657 4.63425 19.1788 4.65319 19.1919 4.67182L19.2324 4.69644C19.2552 4.72817 19.2763 4.75974 19.299 4.79163C19.2818 4.81036 19.2815 4.85671 19.2981 4.93069C19.2978 4.94948 19.2932 4.95058 19.2891 4.95121L19.2659 4.95626C19.2908 5.01735 19.329 5.07718 19.3664 5.137C19.3514 5.14111 19.332 5.1501 19.3207 5.15957C19.3306 5.20219 19.3483 5.23234 19.3667 5.26297C19.3519 5.26533 19.3369 5.26833 19.3207 5.27039L19.3011 5.25792C19.2858 5.26139 19.2659 5.26044 19.2522 5.25681C19.2455 5.24671 19.2395 5.23645 19.2332 5.22666C19.2233 5.21577 19.2039 5.20567 19.1897 5.20504C19.2024 5.23992 19.2201 5.26991 19.2386 5.30038C19.2664 5.31395 19.2858 5.35515 19.3003 5.38183L19.3248 5.41166C19.332 5.42429 19.3401 5.43739 19.3468 5.45033C19.2744 5.48096 19.1961 5.41561 19.1958 5.41466C19.1844 5.42476 19.1672 5.43534 19.1537 5.44055C19.1377 5.47622 19.1302 5.49579 19.1794 5.5501L19.195 5.54852C19.2503 5.61024 19.2812 5.60297 19.2965 5.60013L19.3142 5.59745C19.3693 5.64117 19.4206 5.68885 19.4748 5.73431C19.5042 5.78892 19.5323 5.8437 19.5613 5.89879C19.7037 6.06958 19.7981 6.25032 19.8446 6.441C19.841 6.45647 19.8345 6.47715 19.8311 6.4923C19.8079 6.50777 19.803 6.50872 19.7984 6.50935C19.7422 6.47841 19.6734 6.47383 19.6246 6.42742C19.5617 6.42979 19.5148 6.43595 19.4663 6.44242C19.4153 6.43811 19.3818 6.42874 19.3658 6.41432H19.3532L19.3431 6.43595C19.3508 6.45016 19.3566 6.47052 19.3607 6.48599C19.3336 6.50225 19.3055 6.50556 19.2761 6.50903L19.2812 6.54297C19.3677 6.64715 19.3712 6.79316 19.4662 6.89308C19.4969 6.96853 19.5214 7.0342 19.5457 7.09955C19.5741 7.19947 19.5604 7.30886 19.6182 7.4023C19.6271 7.41399 19.638 7.4304 19.6458 7.44303C19.6499 7.45424 19.6535 7.4656 19.6574 7.47697L19.6685 7.51185C19.663 7.5581 19.6676 7.57594 19.7046 7.67333C19.7269 7.68296 19.7439 7.68028 19.7622 7.6787C19.7749 7.67018 19.7948 7.66276 19.8098 7.66181C19.8277 7.67791 19.8408 7.70033 19.8634 7.71043C19.8775 7.70443 19.8953 7.69164 19.9041 7.6798C19.9368 7.69875 19.9671 7.71895 19.9998 7.73774C20.0296 7.77609 20.0432 7.82471 20.082 7.8577C20.0815 7.84571 20.0807 7.82945 20.0801 7.81745L20.0612 7.81098L20.0733 7.79093C20.181 7.78051 20.1022 7.62345 20.2081 7.61098C20.266 7.53711 20.2562 7.42598 20.3503 7.37184C20.3358 7.33411 20.3222 7.29639 20.3088 7.25898C20.2556 7.169 20.2196 7.0714 20.2008 6.96617C20.1977 6.95007 20.1933 6.92907 20.1896 6.91313C20.1977 6.90113 20.2128 6.88677 20.2245 6.87935C20.2176 6.83589 20.2294 6.78937 20.2599 6.73981C20.2752 6.73839 20.2946 6.73192 20.306 6.72497C20.2952 6.6904 20.2816 6.65741 20.2667 6.62426C20.2616 6.61369 20.257 6.60232 20.2521 6.59127C20.1639 6.41622 20.1196 6.32798 20.2299 6.3646L20.233 6.3635L20.2337 6.36302H20.2359L20.2368 6.36239H20.2386C20.2599 6.37739 20.2798 6.39491 20.3028 6.40785C20.3299 6.40533 20.335 6.40422 20.3394 6.40327L20.3522 6.38165C20.3401 6.35681 20.3268 6.31619 20.3123 6.25979C20.3241 6.24558 20.3271 6.24479 20.3304 6.24416L20.3489 6.22711C20.3434 6.16539 20.3421 6.16271 20.3336 6.12956C20.4914 6.1676 20.4841 6.33777 20.5815 6.4249C20.6096 6.45 20.6109 6.45158 20.6379 6.50051C20.7209 6.58385 20.9756 6.83752 21.0825 7.13649C21.0779 7.14343 21.0748 7.17758 21.073 7.23893C21.0567 7.23893 21.031 7.2453 20.996 7.25803C21.0013 7.27003 21.0083 7.28613 21.0136 7.29812C21.0572 7.33932 21.0637 7.40641 21.1189 7.43924C21.1479 7.44287 21.1612 7.43814 21.1734 7.43309C21.1584 7.39047 21.1426 7.34737 21.1271 7.3046C21.1344 7.17342 21.0484 6.93633 21.0474 6.93396C21.0425 6.92181 21.037 6.90918 21.0316 6.89687L21.0168 6.90855C21.0037 6.89482 20.9986 6.88203 20.9933 6.8694C20.9874 6.85425 20.9792 6.83373 20.9732 6.81873L20.9947 6.80863C21.0241 6.83673 21.0259 6.83989 21.0427 6.87035C21.0141 6.72844 20.8942 6.63894 20.8282 6.51803C20.7701 6.49972 20.6036 6.24953 20.5937 6.23295L20.5825 6.22759C20.5676 6.20233 20.5495 6.16781 20.5282 6.12404L20.5042 6.12325C20.4788 6.1021 20.4644 6.074 20.4499 6.04622L20.4403 6.01212L20.4354 5.98702L20.4264 5.97092C20.4068 5.93572 20.3797 5.90463 20.3648 5.86595L20.3869 5.85617C20.6036 6.09578 20.7015 6.21291 20.748 6.28694C20.8153 6.39396 20.8972 6.49183 20.9521 6.60643C21.0516 6.81647 21.1096 6.92707 21.1262 6.93823C21.1516 6.98953 21.1697 7.03451 21.1869 7.07903L21.1782 7.08582L21.1693 7.06056C21.1702 7.08029 21.171 7.10728 21.2407 7.2233C21.2385 7.20941 21.2344 7.19126 21.2308 7.17768L21.2262 7.15401C21.2594 7.22946 21.2892 7.30728 21.3227 7.3821C21.3321 7.39347 21.3343 7.39157 21.3362 7.38952C21.3343 7.35842 21.334 7.3529 21.3118 7.29149C21.3021 7.26608 21.2982 7.25487 21.2931 7.24382C21.2774 7.20468 21.2764 7.20105 21.2669 7.16916L21.2813 7.18779H21.2864C21.2756 7.14864 21.2733 7.1417 21.2371 7.04904C21.2331 7.02957 21.2208 6.99758 21.2 6.95306C21.2046 6.96916 21.2139 6.9961 21.2281 7.03388C21.1918 6.98353 21.0869 6.75907 21.0864 6.75717C21.0823 6.74597 21.0769 6.73555 21.0728 6.7245L21.0629 6.69893L21.0697 6.70366C21.0765 6.71597 21.0869 6.73334 21.0941 6.74644L21.1 6.73949L21.1022 6.73728C21.0854 6.68867 21.0515 6.64652 21.0488 6.59396C21.055 6.60201 21.0602 6.61069 21.0651 6.61937C20.9551 6.37044 20.8411 6.1223 20.7384 5.91283C20.7357 5.90826 20.7333 5.90415 20.7307 5.89957C20.5878 5.63233 20.5178 5.50053 20.383 5.29359C20.492 5.46991 20.5943 5.6478 20.6912 5.82696C20.7043 5.8508 20.7169 5.874 20.7292 5.89705C20.2064 5.00141 20.1197 4.85366 19.8214 4.47167L19.8238 4.47498V4.47545C19.8222 4.4734 19.821 4.47135 19.8195 4.46914C19.8175 4.46646 19.8156 4.46409 19.8135 4.4614C19.5099 4.0892 19.0915 3.60902 18.7569 3.25306C18.7482 3.24375 18.7395 3.23412 18.7312 3.22513L18.7047 3.1994L18.7296 3.22402C18.7234 3.2185 18.7179 3.21329 18.7099 3.20808L18.6751 3.17082C18.6736 3.16925 18.672 3.16783 18.6704 3.16625C18.6284 3.12852 18.5888 3.09285 18.5508 3.05859C18.5929 3.10137 18.6344 3.14494 18.6769 3.18803C18.6678 3.18308 18.6514 3.17035 18.6275 3.14983V3.14888Z" fill="#A2E363"/>
<path d="M18.4957 3.00143L18.4695 2.97775L18.4669 2.9809C18.4624 2.9768 18.4577 2.97285 18.4531 2.96875C18.4836 2.99606 18.5156 3.02494 18.5488 3.05478C18.5311 3.03694 18.5137 3.01879 18.4956 3.00143H18.4957Z" fill="#A2E363"/>
<path d="M17.0779 1.87718C17.0779 1.87718 17.0764 1.87634 17.0742 1.875L17.0782 1.87752L17.0779 1.87718Z" fill="#A2E363"/>
<path d="M18.3175 3.46716L18.3348 3.49036C18.3433 3.49983 18.3542 3.50646 18.3632 3.51546L18.3814 3.53503L18.391 3.5314H18.399L18.4049 3.52824L18.4077 3.52856L18.424 3.54119C18.4385 3.55508 18.4552 3.56629 18.4715 3.57844L18.4751 3.56124L18.4847 3.56455L18.4923 3.56755C18.4996 3.57023 18.5037 3.57955 18.5132 3.5767C18.524 3.57307 18.5128 3.54955 18.5128 3.54955L18.5046 3.53819C18.4974 3.52824 18.4952 3.52572 18.4969 3.52351C18.5049 3.52162 18.5081 3.52051 18.5032 3.50962C18.498 3.49899 18.4806 3.47321 18.4511 3.43227L18.4507 3.43164C18.4095 3.44253 18.3646 3.45327 18.3145 3.46384L18.3176 3.46731L18.3175 3.46716Z" fill="#A2E363"/>
<path d="M21.3567 7.29541L21.3555 7.29297V7.29373C21.3565 7.29602 21.3576 7.29846 21.3585 7.30059L21.3568 7.29541H21.3567Z" fill="#A2E363"/>
<path d="M18.1271 2.67188C18.1497 2.69145 18.1719 2.71055 18.1945 2.72981C18.3419 2.85814 18.5019 3.00273 18.6681 3.16374C18.6684 3.16405 18.6686 3.16421 18.6689 3.16452C18.4372 2.94054 18.3275 2.83525 18.127 2.67188H18.1271Z" fill="#A2E363"/>
<path d="M19.8125 4.46094C19.8145 4.46379 19.8165 4.46664 19.8184 4.46949C19.819 4.47033 19.8197 4.47134 19.8206 4.47217L19.8127 4.46094H19.8125Z" fill="#A2E363"/>
<path d="M19.8672 17.4287C20.0313 17.2167 20.1083 17.0976 20.2853 16.8223C20.2174 16.9268 20.0921 17.1212 19.9087 17.3722C19.8948 17.3915 19.8806 17.4104 19.8672 17.4287Z" fill="#A2E363"/>
<path d="M21.462 14.3532C21.4617 14.3547 21.4613 14.3563 21.4609 14.3576C21.5474 14.1129 21.5864 13.9667 21.6655 13.6562C21.6655 13.6566 21.6655 13.6567 21.665 13.6567C21.6041 13.8965 21.5356 14.1281 21.4619 14.3532H21.462Z" fill="#A2E363"/>
<path d="M18.4365 18.9993C18.4654 18.9731 18.4744 18.9649 18.4831 18.9566C18.5599 18.8805 18.6223 18.8184 18.6764 18.7637C18.5868 18.8521 18.4973 18.9392 18.4102 19.0224C18.418 19.0154 18.4266 19.008 18.4365 18.9993Z" fill="#A2E363"/>
<path d="M21.8507 9.20293L21.6784 8.36711C21.6294 8.29166 21.6113 8.20043 21.5521 8.13002C21.5254 8.30382 21.6291 8.45472 21.6386 8.62204C21.6362 8.62394 21.6335 8.62551 21.6095 8.60878C21.5964 8.57153 21.5707 8.52386 21.5489 8.49008C21.5313 8.49908 21.5119 8.5076 21.4888 8.51644L20.939 7.44922C20.9014 7.52988 20.8132 7.56745 20.7671 7.64037C20.7206 7.57324 20.6744 7.53609 20.6285 7.52893C20.611 7.58481 20.5707 7.6328 20.5707 7.69389C20.5267 7.70178 20.4811 7.71014 20.4363 7.73603C20.4459 7.82853 20.4453 7.89062 20.4345 7.92229C20.4154 7.92293 20.391 7.92435 20.3714 7.92577C20.3602 7.93887 20.344 7.95639 20.3321 7.96997L20.3173 7.97186C20.2985 7.96933 20.2751 7.96539 20.2567 7.96239C20.2567 7.96239 20.2562 7.9627 20.2431 7.96523C20.1583 7.98291 20.1344 7.97139 20.081 7.91519C20.0679 7.90967 20.0498 7.90177 20.0371 7.89593C20.0272 8.00485 20.0679 8.1065 20.0829 8.21242C20.0476 8.22316 19.9969 8.22931 19.96 8.22884C19.9847 8.32592 20.0081 8.42315 20.0313 8.52118C19.986 8.5267 19.9393 8.53223 19.9022 8.59268C19.9254 8.74895 19.9376 8.90601 19.9623 9.06197C19.9705 9.10412 19.9787 9.14626 19.9855 9.18857C19.947 9.19283 19.9071 9.19709 19.8675 9.20151C19.8811 9.31421 19.8195 9.4124 19.7996 9.51816C19.5059 9.70347 19.7614 10.0709 19.5353 10.2793L19.5149 10.29C19.4963 10.2945 19.4728 10.3011 19.456 10.3058C19.4578 10.3254 19.423 10.511 19.3515 10.8627C19.3539 10.9063 19.3557 10.95 19.3579 10.9939C19.423 11.0024 19.4896 10.9994 19.5556 11.0067C19.5624 11.0256 19.5725 11.0499 19.5806 11.0689C19.5546 11.156 19.541 11.3606 19.5398 11.6826C19.5394 11.7078 19.5394 11.7333 19.5398 11.8063C19.5265 11.8596 19.4946 11.9118 19.4443 11.9629C19.4469 12.0483 19.4687 12.1317 19.4764 12.2168C19.475 12.2412 19.474 12.2665 19.4718 12.2906C19.466 12.4554 19.4945 12.4927 19.6157 12.6485C19.6342 12.6499 19.6582 12.6521 19.6768 12.6534C19.7076 12.7122 19.7059 12.7796 19.7262 12.8412C19.7453 12.8436 19.7706 12.8464 19.7892 12.8489C19.7637 13.0529 19.8314 13.2021 19.9923 13.2964C19.986 13.3586 19.9768 13.421 19.9705 13.483C20.0592 13.5618 20.1001 13.6892 20.2295 13.7261C20.2674 13.6739 20.2892 13.6131 20.3219 13.5575C20.3586 13.5536 20.4069 13.5468 20.4437 13.54L20.465 13.5369C20.5016 13.5301 20.5518 13.5318 20.5872 13.5427C20.5949 13.5608 20.6034 13.5861 20.6108 13.6044C20.7788 13.5779 20.7871 13.3264 20.9895 13.3498C20.9943 13.3489 20.9991 13.3479 21.0202 13.3215C21.0384 13.2881 21.074 13.2491 21.1039 13.2256C21.1201 13.2338 21.1418 13.2458 21.1583 13.2548C21.148 13.4226 21.1546 13.5222 21.1781 13.5536C21.2432 13.5386 21.3034 13.5241 21.3577 13.5088C21.3422 13.582 21.3255 13.6549 21.296 13.7691C20.9922 14.9306 20.8124 15.5663 20.7565 15.676C20.7466 15.698 20.7366 15.7198 20.7264 15.7414C20.549 16.1351 20.4322 16.3949 19.5302 17.76C19.4562 17.8558 19.3806 17.9494 19.304 18.0422C18.9814 18.4424 18.9027 18.5399 18.6797 18.7652C18.8793 18.5682 19.078 18.3663 19.2438 18.1928C19.5008 17.9029 19.8468 17.446 20.2818 16.8222C20.5892 16.3428 20.5949 16.3338 21.0704 15.3542C20.9642 15.5921 20.8534 15.8198 20.7379 16.0374C20.8933 15.7621 20.9487 15.6355 21.0865 15.3209C21.0895 15.3146 21.0924 15.3089 21.0955 15.3026C21.2514 14.9446 21.44 14.3956 21.6612 13.6556C21.9265 12.6177 21.9653 11.7195 21.9964 10.9983C21.9973 10.5905 21.9488 9.99234 21.8507 9.20372V9.20293Z" fill="#A2E363"/>
<path d="M18.2988 19.1325C18.2289 19.1945 18.182 19.2368 18.1582 19.2596L18.1812 19.2427C18.2551 19.175 18.334 19.1006 18.4148 19.0234C18.3534 19.0774 18.3476 19.0829 18.299 19.1294V19.1324L18.2988 19.1325Z" fill="#A2E363"/>
<path d="M17.9443 3.1165L17.9402 3.12344L17.9603 3.14854C17.9768 3.16527 17.9939 3.182 18.0106 3.19874L18.0333 3.19416C18.1686 3.18106 18.1175 3.38626 18.2507 3.38026C18.2862 3.41804 18.3066 3.44277 18.3117 3.45445C18.366 3.45256 18.4109 3.44182 18.452 3.43093C18.4344 3.40662 18.4173 3.38231 18.3982 3.35864L18.4118 3.35311L18.4063 3.33954C18.3895 3.32123 18.3727 3.30434 18.3556 3.28729C18.366 3.28887 18.3946 3.29471 18.5093 3.41483C18.5751 3.3951 18.6271 3.37569 18.6661 3.35548C18.6026 3.2694 18.5551 3.21126 18.5234 3.18106C18.5142 3.17206 18.5052 3.16322 18.4964 3.15454C18.4315 3.09408 18.3461 3.05935 18.2836 2.99716C18.209 2.92787 18.137 2.86315 18.0643 2.80001C18.0624 2.79717 17.7745 2.47168 17.2893 2.09647L17.2983 2.09126V2.09079H17.2988L17.2993 2.09047C17.3291 2.10973 17.3594 2.12993 17.3897 2.15061C17.3774 2.13941 17.3648 2.12899 17.3517 2.1181C17.375 2.12978 17.3815 2.13325 17.4508 2.18124C17.486 2.20744 17.5172 2.23049 17.548 2.25274L17.5449 2.25811C17.6648 2.34714 17.6951 2.3705 17.7535 2.4248L17.7395 2.42243C17.7867 2.46936 17.9541 2.61911 18.2417 2.87167L18.2693 2.89566C18.3203 2.94049 18.3968 2.99716 18.5242 3.09061L18.5286 3.09108C18.5123 3.07198 18.4961 3.05383 18.4793 3.03426L18.4929 3.0401C18.486 3.02258 18.4656 3.0049 18.452 2.99148L18.4408 2.97948L18.4385 2.96228L18.4159 2.94002L18.4099 2.93213C18.4244 2.94476 18.4386 2.95754 18.4528 2.97033C17.832 2.41249 17.7767 2.37034 17.3419 2.06032L17.1727 1.9432C17.1247 1.91021 17.1121 1.90153 17.0531 1.86317L16.4903 1.51258L16.4919 1.51353C16.4608 1.49601 16.4294 1.47738 16.3983 1.45939C16.3864 1.45244 16.38 1.44944 16.3755 1.4466C16.3421 1.42845 16.3094 1.4103 16.2764 1.39183L16.2808 1.39625C16.2958 1.40446 16.3093 1.41314 16.3244 1.42087C16.3045 1.41267 16.2868 1.4002 16.2663 1.39451C16.2501 1.38646 16.2382 1.37999 16.2266 1.37336L16.1555 1.33216C16.1124 1.30975 16.0676 1.29159 16.0244 1.27013L16.0266 1.27281C16.0588 1.28986 16.0918 1.30722 16.1233 1.32443C16.1107 1.32048 16.0886 1.3088 16.0657 1.29696C16.0476 1.28733 16.0297 1.27755 16.0114 1.26713C15.9933 1.2575 15.9838 1.25261 15.974 1.24803L15.9748 1.25703C16.0574 1.29886 16.0578 1.29917 16.1099 1.32743C16.1203 1.33295 16.1315 1.33879 16.142 1.34447L16.1691 1.35931L16.166 1.35884C16.0918 1.31811 16.0659 1.30406 16.0234 1.28481L16.0206 1.28654L15.9387 1.2444L15.9297 1.24219L15.9373 1.24566C15.9916 1.27676 16.0989 1.34258 16.1003 1.34321L16.1025 1.34684C16.0916 1.34258 16.0716 1.33595 16.0163 1.30312C16.0047 1.29807 16.0037 1.29933 16.0028 1.30059C16.0529 1.34353 16.1453 1.39057 16.1724 1.39499C16.2027 1.40982 16.2264 1.42293 16.2499 1.43603L16.2482 1.43855C16.2337 1.43192 16.2172 1.4305 16.2027 1.4264L16.1961 1.42813C16.3203 1.49727 16.3304 1.50406 16.3544 1.52C16.3067 1.49601 16.2345 1.46107 16.1377 1.41519C16.1557 1.43113 16.1765 1.44218 16.1961 1.45386C16.239 1.47644 16.3452 1.53437 16.4024 1.57746C16.3903 1.57536 16.3556 1.55768 16.2982 1.52442C16.3276 1.54763 16.4019 1.59877 16.4024 1.5994C16.43 1.61471 16.4608 1.62608 16.4879 1.64281C16.4979 1.64928 16.5086 1.65528 16.519 1.66144L16.5439 1.67896C16.5325 1.67475 16.4702 1.64276 16.3571 1.58299C16.3946 1.61045 16.4257 1.62971 16.4562 1.64865L16.4679 1.65796L16.4521 1.65291C16.4756 1.68748 16.5163 1.69853 16.549 1.72126L16.5386 1.73089C16.5517 1.74399 16.5725 1.75757 16.5875 1.76846L16.5916 1.77461C16.6063 1.78672 16.6249 1.8004 16.6472 1.81566L16.6423 1.81723L16.6708 1.83965L16.6839 1.84107C16.6517 1.8055 16.6356 1.78609 16.6356 1.78282L16.6091 1.76325L16.6031 1.75473L16.5922 1.74131L16.5946 1.72758C16.609 1.73189 16.631 1.74378 16.6606 1.76325C16.6765 1.80666 17.2311 2.24248 17.2371 2.24659L17.2117 2.22843C17.2538 2.2731 17.2819 2.32883 17.3326 2.36655C17.3465 2.36197 17.3511 2.36103 17.3547 2.35992C17.3655 2.36939 17.4355 2.44774 17.5648 2.59496C17.5537 2.59433 17.5411 2.59133 17.5319 2.58675C17.519 2.58533 17.5149 2.58628 17.5108 2.58723L17.5561 2.62827C17.5764 2.64326 17.596 2.65826 17.6159 2.67404L17.6167 2.68825L17.6115 2.69693H17.611L17.6105 2.69725H17.6097V2.69756H17.6088C17.6099 2.70072 17.6495 2.75739 17.7273 2.86757L17.7145 2.87388C17.7576 2.98485 17.8697 3.03457 17.9435 3.11744L17.9443 3.1165Z" fill="#A2E363"/>
<path d="M18.1277 4.13212C18.1372 4.13054 18.1459 4.12928 18.1558 4.12265L18.1571 4.11318C18.1571 4.11318 18.2092 4.15122 18.2264 4.16448L18.2537 4.16101C18.237 4.13849 18.2253 4.1197 18.2183 4.10465C18.2183 4.10465 18.3256 4.19668 18.3419 4.24435L18.3346 4.2483L18.3305 4.2655C18.3439 4.28266 18.3608 4.30112 18.3812 4.32091C18.4039 4.31743 18.4266 4.31459 18.4476 4.31112L18.4394 4.28571C18.5267 4.31649 18.5411 4.42051 18.6209 4.45776C18.6504 4.50891 18.7211 4.53543 18.7132 4.60835C18.6834 4.6033 18.658 4.58262 18.6264 4.59115L18.6156 4.59225L18.6061 4.59415C18.6089 4.60441 18.6124 4.61467 18.6162 4.62508C18.6203 4.63408 18.6266 4.64671 18.6307 4.65634L18.6043 4.65839C18.6348 4.70211 18.6361 4.70464 18.6528 4.70653C18.6938 4.66581 18.7098 4.69975 18.7341 4.752L18.7202 4.75642C18.7202 4.77504 18.7297 4.79177 18.7328 4.80977L18.7183 4.81735H18.7161L18.7147 4.81782H18.7132L18.7115 4.81813H18.711L18.7098 4.81829C18.7211 4.83976 18.7595 4.90811 18.787 4.90464C18.7922 4.89327 18.7942 4.88112 18.801 4.87101L18.9156 4.89106C18.9165 4.89153 18.9894 4.96194 18.8993 4.96809C18.8875 4.98577 18.9037 5.0025 18.9003 5.01939L18.8916 5.01908L18.8708 5.0377C18.9094 5.09937 18.922 5.14741 18.9088 5.18182L18.9306 5.1995C18.9405 5.19382 18.944 5.19208 18.9631 5.17203C18.964 5.16867 18.962 5.15262 18.9571 5.12389C18.9622 5.12526 18.9766 5.13141 19.0002 5.14236C19.0137 5.14031 19.0273 5.13857 19.0404 5.13652C19.0014 5.07117 19.0011 5.06848 18.9983 5.05459C19.011 5.05638 19.024 5.05407 19.0371 5.04765C19.0452 5.05096 19.0556 5.05522 19.0906 5.04639C19.0916 5.02334 19.09 5.01987 19.0802 4.99856L19.086 4.99051C19.1173 4.99714 19.1354 5.02571 19.1643 5.03439L19.1739 5.02918C19.1856 5.01987 19.2033 5.02302 19.215 5.01529C19.2137 4.99729 19.1975 4.98151 19.2038 4.96115L19.221 4.95862L19.2254 4.94157C19.2039 4.90274 19.1695 4.87575 19.1422 4.84118L19.1327 4.82618C19.1229 4.81135 19.1179 4.79988 19.1179 4.79177L19.1346 4.78467C19.1346 4.78467 19.116 4.75247 19.0998 4.72532L19.1223 4.7209C19.1092 4.7018 19.0957 4.6827 19.0758 4.65918C19.03 4.62682 18.9994 4.57947 18.9536 4.54774L18.9478 4.55673C18.9582 4.57063 18.9894 4.61277 18.9785 4.63819C18.9724 4.63555 18.9283 4.58215 18.846 4.47797C18.8348 4.47986 18.8228 4.48191 18.8111 4.48397C18.7592 4.40378 18.7039 4.32091 18.6686 4.33227C18.6582 4.32391 18.6504 4.31412 18.6411 4.30512C18.6043 4.2865 18.5789 4.25351 18.5467 4.23014C18.5057 4.20141 18.482 4.15595 18.4424 4.12675C18.4049 4.09992 18.3528 4.10576 18.3165 4.07435L18.2854 3.99432L18.299 3.98579C18.2922 3.97632 18.2841 3.96764 18.275 3.95517C18.2505 3.92707 18.25 3.88887 18.2282 3.8603C18.1989 3.82384 18.1691 3.78801 18.1386 3.75154C18.1015 3.75707 18.0617 3.76307 18.021 3.76859C17.9273 3.59938 17.9161 3.5817 17.8962 3.57617L17.8864 3.58028L17.8656 3.58691C17.8537 3.5959 17.8438 3.5959 17.8086 3.59275C17.8155 3.60074 17.8418 3.63831 17.8873 3.70545C17.9096 3.73828 17.9506 3.75817 17.9615 3.80048C17.9271 3.81926 17.9075 3.77696 17.8772 3.78201C17.8719 3.79669 17.9162 3.89092 18.0071 3.90482C18.0116 3.91397 18.0166 3.92407 18.0218 3.93307C18.0294 3.94238 18.0365 3.95122 18.0433 3.96054C18.0619 3.98879 18.0908 4.01042 18.1036 4.04372C18.0852 4.06035 18.0933 4.08945 18.128 4.13101L18.1277 4.13212Z" fill="#A2E363"/>
<path d="M21.4609 14.3535C21.4612 14.3524 21.4615 14.3512 21.462 14.3501C21.4623 14.3486 21.4626 14.3472 21.4631 14.3457L21.4609 14.3535Z" fill="#A2E363"/>
<path d="M17.8064 3.7265L17.8183 3.72603C17.8282 3.72019 17.8273 3.71829 17.8265 3.71466C17.8224 3.70424 17.812 3.69951 17.805 3.69114L17.8006 3.67646C17.797 3.66904 17.7952 3.66352 17.7608 3.61616L17.7553 3.60938L17.7463 3.62895C17.7444 3.643 17.7553 3.65436 17.7536 3.66825L17.7463 3.6763V3.67851C17.749 3.68846 17.7585 3.69461 17.7616 3.70361C17.7671 3.71924 17.7679 3.73613 17.7752 3.75081C17.7825 3.76438 17.7938 3.77449 17.8025 3.7868L17.8268 3.79848L17.83 3.78285L17.8233 3.76833C17.8042 3.73171 17.805 3.72918 17.8064 3.72666V3.7265Z" fill="#A2E363"/>
<path d="M18.1632 4.41995L18.1446 4.42595L18.1316 4.44836C18.1198 4.44394 18.1125 4.43384 18.1026 4.42847L18.0893 4.43763C18.1348 4.50519 18.1799 4.57354 18.2243 4.64204C18.2409 4.64246 18.2584 4.64036 18.2767 4.63573C18.2962 4.66588 18.3161 4.6965 18.3347 4.72665C18.3184 4.73275 18.3071 4.73649 18.3007 4.73786C18.3013 4.75238 18.3193 4.79468 18.3193 4.795C18.3294 4.81773 18.3483 4.83478 18.3573 4.85751L18.3502 4.87061C18.3733 4.94543 18.4432 4.97921 18.4541 4.962C18.4717 4.93233 18.4741 4.92933 18.5107 4.95458C18.518 4.9508 18.5154 4.91523 18.503 4.84788C18.5464 4.84283 18.589 4.83762 18.6304 4.83194C18.6207 4.81804 18.612 4.80431 18.6031 4.79042C18.5953 4.77827 18.5922 4.77527 18.5783 4.76075C18.5502 4.73217 18.5514 4.72649 18.5524 4.72333L18.5592 4.71844C18.5456 4.67203 18.4722 4.5688 18.4301 4.5115C18.4165 4.49208 18.4034 4.47314 18.3903 4.45373H18.4026C18.4058 4.44804 18.4121 4.43068 18.3958 4.40243L18.2741 4.26841C18.2484 4.24379 18.2393 4.24868 18.2348 4.25184C18.2235 4.24726 18.215 4.23874 18.2049 4.23242H18.1949C18.1847 4.23637 18.1854 4.24931 18.1758 4.25468C18.1741 4.27157 18.1854 4.28625 18.184 4.30282C18.1578 4.28641 18.1334 4.26715 18.1076 4.25057L18.0781 4.26162C18.1116 4.30835 18.1402 4.3587 18.1749 4.40353L18.1817 4.4029H18.1821L18.1749 4.40353L18.1662 4.40621L18.163 4.41932L18.1632 4.41995Z" fill="#A2E363"/>
<path d="M18.6207 3.51253C18.6678 3.56641 18.6996 3.59935 18.7161 3.61134C18.7615 3.64554 18.7866 3.66528 18.7914 3.67054L18.8159 3.6969L18.8392 3.72294C18.8617 3.74694 18.9024 3.78261 18.9616 3.82997C18.9971 3.85806 19.017 3.89816 19.046 3.93241L19.0574 3.9463C19.0741 3.96445 19.0905 3.98197 19.1068 3.99997C19.1208 3.99508 19.1344 3.9905 19.147 3.98545C19.0894 3.91484 19.0579 3.87253 19.0523 3.85854L19.0547 3.85696L19.0619 3.85491C19.0728 3.85854 19.0791 3.86864 19.0899 3.87022C19.0832 3.85191 19.0561 3.84307 19.0619 3.81828L19.0656 3.81702C19.0438 3.78924 19.0203 3.76241 18.9949 3.73557L19.013 3.72752C18.993 3.70542 18.9731 3.68332 18.9522 3.66122L18.9447 3.66549L18.9469 3.67259L18.9447 3.67511C18.9273 3.67054 18.9224 3.65128 18.9065 3.64497C18.8598 3.58404 18.8084 3.52374 18.7523 3.46407C18.703 3.41245 18.6735 3.3752 18.6658 3.35547C18.6254 3.37378 18.5735 3.39319 18.5078 3.41293C18.5391 3.44402 18.5771 3.4677 18.6085 3.49895L18.6207 3.51221V3.51253Z" fill="#A2E363"/>
<path d="M7.82097 1.30005L7.79335 1.28948L7.8377 1.26012L7.89909 1.20108L7.89009 1.18719C7.87289 1.18624 7.85474 1.18498 7.8377 1.18372L7.75026 1.22286L7.68824 1.24212L7.61848 1.25601L7.52852 1.29169L7.46192 1.35214L7.35507 1.39287L7.31435 1.42901C7.32713 1.4298 7.33976 1.43059 7.35191 1.43122L7.33566 1.46879L7.40857 1.44938L7.48054 1.44464L7.47423 1.4871L7.386 1.50605L7.30898 1.52088L7.24112 1.5564L7.26748 1.60312C7.29367 1.60423 7.31814 1.60581 7.34355 1.6077L7.43572 1.60312C7.46065 1.60423 7.48512 1.60581 7.50989 1.60881C7.51857 1.62222 7.52931 1.6339 7.53751 1.64748C7.53167 1.65458 7.52583 1.66232 7.48322 1.69152L7.36185 1.67952C7.32335 1.67747 7.28594 1.6751 7.24885 1.67289L7.11801 1.71599L7.06641 1.81748L7.15368 1.82806C7.17894 1.82948 7.20482 1.83074 7.23102 1.83216L7.18399 1.9305L7.20119 1.9747C7.23591 1.9766 7.27221 1.97833 7.30804 1.98023H7.41252L7.51889 1.93713L7.61295 1.91519L7.72517 1.86784L7.78988 1.84021L7.79493 1.8762L7.84653 1.86831L7.90856 1.94424L7.98463 1.95292L8.0637 1.94503L8.13851 1.88015L8.11941 1.82317L8.16881 1.81985L8.24851 1.80754L8.29602 1.76366L8.26587 1.71251L8.17718 1.65427V1.57139L8.25404 1.49326L8.24331 1.44101L8.32601 1.33857L8.34731 1.2718L8.31338 1.23107C8.29302 1.23012 8.27219 1.22918 8.2523 1.22791C8.22689 1.25175 8.20243 1.27558 8.17765 1.30005L8.13867 1.35309L8.10063 1.42491L8.0495 1.45569L8.02645 1.44953L8.02961 1.41686L8.07491 1.36366L8.10253 1.31931L8.12636 1.24875L8.08438 1.24165L8.04492 1.289L8.02267 1.32878C8.00468 1.32815 7.98653 1.3272 7.96759 1.32625L7.92781 1.36098L7.87116 1.36761L7.92371 1.32815L7.98937 1.28142L7.95543 1.27495L7.93365 1.25096L7.88205 1.25301L7.82097 1.29926V1.30005Z" fill="#A2E363"/>
<path d="M8.15767 0.77658L8.13731 0.805624L8.19697 0.78684L8.24858 0.75969L8.28393 0.758112L8.36174 0.718965L8.43323 0.693867L8.37847 0.738223L8.42376 0.725752L8.49352 0.708705L8.61078 0.64809L8.69632 0.607997L8.68007 0.589844L8.60037 0.619835C8.58458 0.618415 8.56864 0.617467 8.55334 0.616678L8.53029 0.611311C8.43654 0.64446 8.3469 0.687237 8.25426 0.722438C8.24147 0.721491 8.22901 0.720543 8.21575 0.719912L8.13747 0.740275L8.07812 0.781947L8.07907 0.809729L8.15767 0.776422V0.77658Z" fill="#A2E363"/>
<path d="M8.67152 0.679254C8.63885 0.6832 8.6267 0.683042 8.62259 0.682411L8.61991 0.675781L8.58203 0.702458L8.62086 0.711771L8.67152 0.679096V0.679254Z" fill="#A2E363"/>
<path d="M7.47656 2.02657L7.54348 2.05135L7.64307 2.01252L7.72088 2.00052L7.77564 1.93359L7.63675 1.96485L7.47656 2.02657Z" fill="#A2E363"/>
<path d="M7.06506 1.46424C7.08668 1.46582 7.10846 1.46771 7.12977 1.46945L7.22525 1.4273C7.30322 1.37474 7.35562 1.34033 7.57973 1.24372L7.76028 1.19258L7.86176 1.16701L7.92379 1.11429L7.93278 1.04625L7.90059 1.03536L7.8051 1.06362L7.78711 1.03236L7.77748 0.997477L7.72272 0.984375L7.61776 0.9899C7.59788 1.00253 7.57705 1.01516 7.55748 1.0281L7.45757 1.09945L7.27876 1.20805L6.98931 1.35074L7.0286 1.40268L6.93359 1.52469L7.06522 1.46408L7.06506 1.46424Z" fill="#A2E363"/>
<path d="M8.88826 0.542537L8.89204 0.523438L8.8679 0.525332L8.82039 0.555007L8.79688 0.576633L8.82228 0.581526L8.88826 0.542537Z" fill="#A2E363"/>
<path d="M9.32706 13.5948L9.3157 13.4502L9.38593 13.3598L9.64114 13.3804L9.67002 13.4709L9.7524 13.4636L9.79723 13.3452L9.7049 13.2341C9.61573 13.2336 9.5275 13.233 9.43881 13.2321L9.26551 13.2208L9.01078 13.1997L8.89178 13.1162L8.72607 12.9394L8.73238 12.7997C8.73191 12.7383 8.73096 12.6763 8.73096 12.6138L8.78304 12.3809C8.78304 12.3274 8.78273 12.2741 8.78273 12.2207L8.6994 12.0958L8.53684 12.0075L8.29347 12.0226L8.12318 11.9811L7.93458 12.0535L7.81021 11.9664L7.92558 11.8734V11.7015L7.97088 11.5972L8.03464 11.428C8.03558 11.3645 8.03653 11.3009 8.03779 11.2373L8.14638 11.1647L8.16626 11.0225L8.08703 10.9656L7.81968 10.9789L7.65128 11.0027L7.5771 11.1338L7.50324 11.3308L7.42275 11.5086L7.28197 11.5247L7.08074 11.5762L6.87336 11.5996L6.7793 11.4632L6.609 11.3637L6.55108 11.2095L6.43745 11.0076L6.38095 10.6679L6.3669 10.4242L6.46097 10.2395L6.51526 10.0283L6.44613 9.8045L6.61074 9.59851L6.73747 9.59314L6.87131 9.48801L7.00799 9.36378L7.18412 9.39599L7.30896 9.44476L7.41391 9.40151L7.49267 9.52195C7.54475 9.52306 7.59636 9.52432 7.64781 9.52558L7.76918 9.51895L7.74834 9.42771L7.80043 9.28297L7.99139 9.27886L8.12412 9.26339L8.36702 9.2937L8.45713 9.4233C8.48381 9.42377 8.51001 9.4244 8.53668 9.42472L8.59365 9.35274L8.6642 9.33521L8.77562 9.44666L8.8779 9.58477C8.87569 9.63639 8.87427 9.6888 8.87206 9.74105L8.9314 9.83323L8.9557 9.9352L9.03493 10.0107L9.07612 10.1216L9.17461 10.1781L9.18187 10.2989L9.27198 10.3279L9.32849 10.2451L9.37552 10.1155L9.32533 9.95825L9.2764 9.71863L9.16498 9.5068C9.16829 9.41588 9.17145 9.32495 9.1855 9.18904C9.20175 9.14579 9.22495 9.08818 9.24294 9.04556L9.34837 8.84809L9.50036 8.78779L9.68233 8.6372L9.85246 8.52323L10.0144 8.46199L10.0428 8.34802L10.1678 8.27794L10.0665 8.08457L9.98946 7.99617L10.0272 7.89326L9.9601 7.79697L10.0834 7.73683L10.1837 7.87637L10.2475 7.73762L10.3195 7.61797L10.397 7.54062L10.4775 7.28506C10.5549 7.28553 10.6309 7.28569 10.7079 7.28569L10.8526 7.20172L11.0242 7.18514L10.9803 7.0838L10.9694 6.87465L11.0826 6.71743C11.1272 6.71743 11.1722 6.71743 11.2165 6.71696L11.2579 6.62588L11.432 6.63377L11.5863 6.54332L11.6796 6.41973C11.8633 6.41426 11.9986 6.42594 12.0855 6.45477C12.0696 6.47071 12.0494 6.49155 12.0334 6.50734C11.9615 6.50828 11.889 6.50876 11.8139 6.51207C11.7786 6.53906 11.7315 6.57505 11.6952 6.60205C11.6957 6.64103 11.7025 6.6936 11.7124 6.73164L11.8071 6.77237L11.9039 6.68902L11.9749 6.63835L12.1138 6.59652L12.2582 6.5217L12.4053 6.48713L12.508 6.34664L12.6122 6.24862L12.6163 6.13639L12.4656 6.17774L12.3761 6.34822L12.1955 6.35864L12.0421 6.28729L11.8786 6.16717L11.7822 5.96023L11.9111 5.85684L11.8898 5.6922L11.6916 5.67768L11.4812 5.74113L11.2481 5.87609L11.0224 6.09929L10.8376 6.22731L10.9091 6.10766L11.0191 5.97917L11.0906 5.91635L10.9059 5.86899C10.9828 5.86899 11.0598 5.86852 11.1368 5.86852L11.1892 5.75802L11.3119 5.65605L11.4604 5.64816L11.5169 5.52251L11.6383 5.47626C11.7034 5.4761 11.7683 5.47531 11.8333 5.47531L12.1837 5.46426L12.3666 5.49315L12.506 5.48352L12.6318 5.38108L12.735 5.24201L12.9528 5.21581L13.0587 5.16814L13.1081 5.10626L13.0288 5.04833L13.0623 4.98708L13.0451 4.86144L12.8859 4.84186L12.8418 4.76846C12.7855 4.76941 12.7293 4.77036 12.6731 4.77099L12.5514 4.84723L12.4719 4.90816L12.3927 4.87943L12.4099 4.79009L12.5554 4.73594L12.7315 4.69017L12.7986 4.61582L12.6801 4.61045L12.5543 4.5541L12.3963 4.51385L12.2886 4.42893L12.1696 4.34448L12.1157 4.2676L12.1768 4.25261L12.1899 4.19641L12.0718 4.06524L11.9346 3.92239L11.7405 3.67504L11.6741 3.56281L11.5732 3.70929C11.5792 3.75159 11.5824 3.79405 11.5868 3.83683L11.4646 3.88513L11.39 3.974L11.2678 3.96848L11.2356 3.88624L11.151 3.82499L11.0325 3.85262L11.0601 3.71134C11.057 3.64931 11.0543 3.58743 11.0511 3.5265L11.0398 3.42895L10.9014 3.42248L10.7918 3.3516L10.6927 3.24995L10.5234 3.14166L10.4601 3.19233L10.3152 3.18491L10.2573 3.14719C10.2028 3.14671 10.1487 3.1464 10.0947 3.14608L10.022 3.2149L10.0736 3.31672L10.0373 3.45136L10.0482 3.54339L10.0955 3.66935C10.0652 3.66888 10.0359 3.66888 10.0056 3.66841L10.0021 3.789L9.93722 3.85546L10.0128 3.91102L10.1257 4.00036L10.1511 4.15964C10.147 4.22041 10.1433 4.28165 10.1402 4.34321L10.0406 4.47076L9.90707 4.56989L9.72873 4.59041L9.81522 4.75126C9.80985 4.81913 9.80527 4.88859 9.79975 4.95804L9.84236 5.07879L9.80559 5.17603L9.71547 5.2971L9.53255 5.31731L9.4448 5.14146L9.33622 4.99024C9.34032 4.94841 9.34569 4.90642 9.34979 4.86428L9.33448 4.68764L9.37425 4.54258L9.16198 4.51132L9.00321 4.50154L8.92903 4.44976L8.74075 4.39609L8.68377 4.30991L8.53715 4.21457L8.38974 4.11354L8.15537 4.16327L8.12823 4.07187L8.09887 3.8643L8.01096 3.80684L7.96946 3.72539L8.07583 3.48183L8.23776 3.30409L8.38943 3.14892L8.53242 3.0962L8.65505 3.01807L8.64321 2.93125L8.5078 2.89163L8.36402 2.82707L8.54552 2.86227L8.68993 2.9082L8.76852 2.89163L8.81382 2.8026L8.93092 2.85264L9.01299 2.83638L9.03967 2.76551L9.09711 2.73646L9.15014 2.64286L9.06271 2.62975L8.95002 2.61571L8.92524 2.56251L8.8165 2.50237L8.90204 2.50995L9.02909 2.55304L9.11195 2.58998L9.2169 2.55683L9.30465 2.47254L9.25667 2.40324C9.28698 2.40403 9.31823 2.40466 9.349 2.40513L9.38877 2.46843L9.32359 2.5352L9.24752 2.66196C9.23363 2.7142 9.21911 2.76756 9.20586 2.8217L9.09601 2.85611L9.10548 2.92904L9.21138 2.93725C9.20601 2.95919 9.20017 2.98144 9.20822 3.00654C9.24815 3.01065 9.30276 3.00528 9.34143 2.99391L9.39935 2.90978L9.53508 2.91799L9.60705 2.93093L9.67538 2.96803C9.71153 2.9685 9.74862 2.96913 9.78539 2.96945L9.80969 2.87853L9.70553 2.85343L9.67475 2.73946L9.55023 2.72589L9.47021 2.63686L9.38467 2.61208C9.38972 2.59061 9.39461 2.56946 9.40061 2.54799L9.48079 2.56709L9.52908 2.52131L9.53003 2.47017C9.56349 2.47096 9.59663 2.47159 9.62993 2.47206L9.68201 2.39882L9.78886 2.3281L9.83084 2.26749L9.79375 2.20167L9.77245 2.0937L9.8583 2.07917L9.89776 2.0012L9.85294 1.92259L9.7786 1.88139L9.69211 1.8192C9.73062 1.81983 9.76913 1.82062 9.80843 1.82125L9.83163 1.78179L9.91433 1.79268L9.9732 1.83798L10.0692 1.83403L10.1591 1.81478L10.099 1.74027L10.1508 1.72591L10.2145 1.81083L10.2999 1.82109L10.3285 1.90207L10.3927 1.91801L10.4262 1.97926L10.4962 2.01098L10.5325 2.08943L10.6159 2.12148L10.6859 2.20246L10.7017 2.3008L10.5949 2.40577L10.5008 2.51279L10.5475 2.61713L10.3805 2.6397L10.2936 2.61618C10.2623 2.61571 10.2312 2.61555 10.1995 2.61555L10.075 2.70189C10.0709 2.73315 10.0682 2.76487 10.0651 2.79613L10.2049 2.82233L10.3188 2.81618L10.3499 2.76298L10.403 2.73362L10.4748 2.75146L10.6105 2.79344L10.7445 2.92651L10.7743 2.99944L10.8599 3.09257C10.9006 3.09257 10.9404 3.09257 10.9812 3.09225L11.1151 3.2168L11.307 3.22311L11.4369 3.27883L11.441 3.20307L11.2246 3.04806L11.1359 2.9805L11.0903 2.90757L11.2246 2.97403L11.4575 3.0902L11.5825 3.15792C11.5786 3.12035 11.5726 3.08294 11.5682 3.046L11.6184 2.94782L11.5039 2.88768L11.4605 2.73804L11.3117 2.68611L11.1263 2.50174L11.1765 2.4506L11.2249 2.40529L11.4653 2.57467L11.5603 2.68421L11.6594 2.70126L11.6638 2.57309L11.7707 2.52542L11.776 2.47459C11.8022 2.47411 11.8272 2.47396 11.8529 2.47364L11.8718 2.41682L11.8455 2.33347C11.7972 2.33394 11.7468 2.33442 11.6971 2.33505C11.694 2.32037 11.6918 2.30537 11.6884 2.29069L11.5844 2.22029L11.5207 2.20972L11.4212 2.16804C11.3968 2.16836 11.3731 2.16836 11.3497 2.16868L11.3198 2.10964L11.2876 2.05708L11.1681 2.05802L11.1182 2.05297C11.1151 2.02314 11.1119 1.9933 11.1088 1.96426C11.1359 1.96379 11.164 1.96379 11.1911 1.96363L11.2282 1.92322L11.1151 1.89275L11.1245 1.8574L11.1754 1.84698L11.1064 1.78731L11.0223 1.76316L11.0475 1.7087L10.9588 1.67082L10.866 1.67524L10.8512 1.6323L10.7765 1.62741L10.7453 1.61794L10.8046 1.57563L10.7232 1.54785L10.6208 1.57548L10.5556 1.50113L10.5497 1.45977L10.4891 1.45472L10.4887 1.40579L10.3959 1.36964C10.3559 1.36932 10.3157 1.36917 10.2745 1.36869L10.2513 1.40847L10.1866 1.41668L10.1296 1.40295L10.0996 1.45204L10.0382 1.45598L10.0491 1.39316L10.098 1.33602L10.0608 1.25788L10.054 1.19032C10.0201 1.18985 9.98662 1.18938 9.95347 1.18874L9.88924 1.23847L9.81822 1.24194L9.75714 1.27509L9.71879 1.34391L9.73773 1.42047L9.68785 1.46924L9.71958 1.56711L9.6626 1.57579L9.61951 1.49103L9.63845 1.38274L9.66023 1.31187L9.73804 1.24036L9.8299 1.18306C9.79865 1.18227 9.7685 1.18196 9.73773 1.18164L9.63309 1.19222L9.50241 1.27461L9.38514 1.39584L9.30544 1.55417L9.38972 1.57532L9.45301 1.58132L9.45743 1.64382L9.38814 1.62757L9.29866 1.65045L9.33354 1.72875C9.36526 1.72922 9.39682 1.73017 9.42807 1.73048L9.48284 1.71233L9.53082 1.76221L9.63987 1.8083L9.55623 1.83198L9.52955 1.90317L9.56996 1.95479L9.43817 2.09401L9.36305 2.19504L9.26993 2.27491L9.21564 2.24113L9.20885 2.1169L9.28303 2.04413L9.2098 1.92717L9.08386 2.01304L9.02609 1.85187L8.99169 1.83025L9.03872 1.75179L9.06492 1.66356L9.01741 1.65251L9.05134 1.58195L9.01252 1.50066L8.91783 1.49308L8.87395 1.53838L8.82881 1.54233L8.73775 1.61573L8.7237 1.67871L8.68172 1.72701L8.71739 1.81304L8.769 1.87018L8.70271 1.94595L8.6208 1.92243L8.60091 2.01161L8.68409 2.00846L8.8053 1.94879C8.78951 1.97989 8.7742 2.01098 8.75968 2.04271L8.5523 2.133L8.49659 2.27333L8.43109 2.1944L8.50859 2.09891C8.48775 2.09827 8.4655 2.0978 8.44435 2.09685L8.48854 2.00814C8.50858 2.00877 8.528 2.00925 8.54646 2.01004L8.59981 1.88139L8.5089 1.80152L8.42383 1.89086L8.32551 1.92906L8.39337 2.03198L8.29789 2.08707L8.23223 2.16141L7.98208 2.16283L7.8997 2.10001L7.82331 2.08012L7.76902 1.99741L7.65081 2.05108L7.48478 2.10885L7.44721 2.20103L7.32774 2.34184L7.37698 2.16946L7.31227 2.10064L7.1625 2.12511L6.9245 2.07886L6.96332 2.03166L7.09053 1.9952L7.04523 1.9008L6.96253 1.90144L6.83801 1.80231L6.856 1.73506L6.78277 1.71391L6.72438 1.7147L6.63931 1.76647L6.57286 1.77721L6.66866 1.65282L6.50847 1.75621L6.46949 1.73664L6.59117 1.59394L6.56324 1.56553L6.42893 1.65266L6.31703 1.70712L6.23969 1.7158L6.10791 1.75195L5.95087 1.8083L6.13679 1.71723L6.23733 1.69418L6.32239 1.66955L6.40336 1.62441L6.39073 1.61273L6.25816 1.64746L6.09166 1.70112H6.03642C6.02284 1.69955 6.00738 1.69797 5.99396 1.69623L5.78768 1.77358L5.72755 1.74911L5.79415 1.65045L5.70372 1.62678L5.73939 1.57453L5.71856 1.54911L5.6185 1.56758L5.65527 1.51597C5.63665 1.51297 5.61913 1.50981 5.60177 1.50681L5.60682 1.46009C5.59103 1.45725 5.57604 1.45409 5.56026 1.45109L5.53453 1.44525C4.77745 1.88739 4.07544 2.41934 3.44383 3.02627L3.5311 3.0037L3.51437 3.05895L3.36697 3.1183L3.26548 3.2007C3.25002 3.2168 3.23423 3.23211 3.2194 3.24789L3.14648 3.33029L3.35466 3.22927L3.45519 3.21096C3.49323 3.1606 3.5461 3.09257 3.60134 3.06163L3.65894 3.07884L3.62627 3.18176L3.61949 3.26778L3.65484 3.31624L3.74496 3.29414L3.75885 3.34592C3.77526 3.34797 3.7923 3.35018 3.80951 3.35255L3.78931 3.44331L3.80919 3.53187C3.81093 3.57259 3.81377 3.62768 3.8155 3.66888C3.83492 3.66288 3.86033 3.65467 3.88021 3.64883L3.88921 3.71529L3.85622 3.81284L3.9173 3.86319L3.83586 3.94906L3.88116 4.02041L3.8073 4.10123L3.84218 4.14148L3.89284 4.162L3.83129 4.2605L3.81093 4.37036L3.74764 4.4927L3.70376 4.61077L3.77889 4.6335L3.72097 4.77367L3.7377 4.91447L3.70929 5.01329L3.76532 5.09584L3.83586 5.15709L3.9001 5.20176L3.87753 5.27879L3.93829 5.38629L3.98075 5.47737L3.94271 5.66631C3.92046 5.71556 3.89931 5.7656 3.87753 5.81532L3.8567 5.71572L3.83997 5.58612L3.85859 5.5072L3.80824 5.4237L3.76437 5.3885L3.81345 5.266C3.79088 5.26411 3.76816 5.2619 3.7459 5.26001L3.7197 5.19481L3.68483 5.16009L3.64584 5.13309L3.57892 5.14257L3.57656 5.24564L3.61238 5.31178L3.63811 5.40176L3.71465 5.55187L3.6965 5.70356L3.66936 5.89709L3.6007 6.04768L3.50743 6.25478C3.47665 6.33275 3.44588 6.41168 3.417 6.49045L3.34455 6.54301C3.32514 6.59526 3.30652 6.64719 3.28805 6.69991L3.29437 6.87055L3.21972 7.02713L3.19651 7.15499L3.21056 7.26754L3.15659 7.42981L3.18468 7.57108L3.2467 7.68916L3.24402 7.92688L3.30289 8.02948L3.29374 8.1526L3.34092 8.29925C3.37928 8.30225 3.41873 8.30477 3.45819 8.30761L3.52463 8.4099L3.64269 8.49877L3.71418 8.62994L3.71465 8.78321L3.7377 8.93838L3.76263 9.19489L3.83192 9.30933L3.92204 9.44255L3.93971 9.536L3.84407 9.6124L3.88937 9.71737L3.98722 9.82392L4.11616 9.94309L4.18623 10.0681L4.16367 10.169L4.18623 10.2545L4.29387 10.3163L4.3922 10.4334L4.46148 10.5311L4.46322 10.6433L4.52666 10.6095L4.54829 10.4881L4.51214 10.3464L4.41666 10.2855L4.41208 10.1635L4.30681 10.056L4.27604 9.89684L4.24747 9.74704L4.16288 9.63087L4.15072 9.48312L4.06155 9.43229L4.02809 9.24729L3.94303 9.08786L3.95849 8.88834L4.04451 8.88487L4.15672 8.95432L4.21275 9.06671L4.19665 9.23893L4.30018 9.47349L4.41997 9.66338L4.5344 9.79945L4.6141 9.93315L4.62357 10.0818L4.75535 10.1808L4.84626 10.3256L4.91412 10.4777L5.06848 10.691L5.1245 10.8733L5.20957 10.9612L5.11961 11.0237L5.09247 11.1353L5.27254 11.3143L5.42327 11.4629L5.6106 11.5369L5.80694 11.6787L6.0391 11.801L6.29983 11.9522L6.51336 12.0259L6.64925 12.0206L6.69218 11.9456L6.84637 11.9322L7.01967 12.0311L7.21205 12.1967L7.31922 12.332C7.3713 12.3334 7.4237 12.3347 7.47673 12.3358L7.53828 12.3377L7.62745 12.3775L7.72593 12.5198L7.92242 12.5896L7.93016 12.4955L8.03779 12.5547C8.25265 12.8551 8.35129 13.036 8.33372 13.0974L8.39795 13.1722L8.47718 13.1366L8.5875 13.1926C8.73238 13.3286 8.8386 13.3942 8.90615 13.3896L9.18029 13.5288L9.32691 13.594L9.32706 13.5948Z" fill="#A2E363"/>
<path d="M16.9727 1.80859C17.0082 1.83164 17.0342 1.84853 17.0547 1.86179L17.074 1.87379C17.0587 1.86416 17.0003 1.82533 16.9727 1.80859Z" fill="#A2E363"/>
<path d="M8.84024 0.628208L8.89327 0.627418L8.94314 0.60311L8.96713 0.574854L8.99285 0.57296L9.0522 0.546441L9.02726 0.545337C9.011 0.544863 8.99459 0.543758 8.97802 0.542969L8.92783 0.552913L8.85712 0.574697L8.78516 0.631996L8.79605 0.639415L8.84024 0.62805V0.628208Z" fill="#A2E363"/>
<path d="M8.59717 0.848524L8.62605 0.858784C8.59717 0.890038 8.58897 0.889722 8.55235 0.888933C8.53515 0.887986 8.517 0.886881 8.49932 0.886092L8.50627 0.855469L8.5533 0.797222L8.54604 0.77465C8.53515 0.773703 8.52347 0.773229 8.51353 0.773071L8.51668 0.747342L8.50532 0.739449L8.42877 0.756497L8.32824 0.803221L8.24869 0.836527L8.16047 0.874569L8.09766 0.918767L8.14863 0.925239L8.17578 0.943233L8.23054 0.93834L8.29604 0.922713L8.34449 0.941181C8.35933 0.941813 8.3748 0.94276 8.38979 0.943233C8.37164 0.951757 8.34544 0.96328 8.30646 0.96328C8.28831 0.962175 8.27174 0.961386 8.25438 0.960281L8.18888 0.98096L8.14848 1.01553L8.15526 1.037C8.17878 1.03857 8.20182 1.03968 8.22502 1.04126L8.33992 1.00969L8.4414 0.96628L8.50027 0.961228C8.52331 0.962175 8.54588 0.96328 8.56845 0.964385C8.59102 0.965017 8.61374 0.966437 8.63679 0.967385L8.70923 0.927922L8.81686 0.851523L8.82996 0.822478C8.82002 0.822005 8.81055 0.821531 8.80108 0.8209L8.75579 0.852628L8.74174 0.833528L8.75847 0.785384C8.77394 0.773861 8.79003 0.762338 8.80408 0.751288L8.84669 0.710563C8.83533 0.710563 8.82349 0.709458 8.81229 0.708984L8.76336 0.731557L8.72264 0.740239L8.68603 0.767231C8.67908 0.789435 8.64936 0.81648 8.59686 0.848366L8.59717 0.848524Z" fill="#A2E363"/>
<path d="M8.28711 1.17827L8.32152 1.18885L8.38117 1.14844L8.33919 1.15096L8.28711 1.17827Z" fill="#A2E363"/>
<path d="M9.07073 0.511725C9.08935 0.512672 9.10829 0.513304 9.1277 0.514251L9.12944 0.513146C9.17158 0.489468 9.173 0.485522 9.17347 0.483628C9.17205 0.481418 9.16921 0.478419 9.16984 0.464844L9.13007 0.465791L9.08035 0.47542L8.99023 0.507147C9.00191 0.507621 9.01328 0.50841 9.02511 0.509042C9.0409 0.510147 9.05542 0.510936 9.07073 0.511725Z" fill="#A2E363"/>
<path d="M16.5933 15.4926C16.5459 15.4947 16.4978 15.4967 16.4194 15.4926C16.2533 15.4443 16.2202 15.1518 15.9999 15.2303C15.9356 15.2334 15.8714 15.2353 15.7854 15.2372C15.6487 15.1643 15.5502 15.1109 15.5226 15.2473C15.4846 15.272 15.4443 15.2977 15.3444 15.2323C15.3519 15.2089 15.3854 15.1764 15.4448 15.1349C15.2883 15.0308 15.1695 14.9731 15.0883 14.9621C15.0764 14.9623 15.066 14.9626 15.0168 14.9446C14.9402 14.9048 14.9284 14.901 14.8268 14.919C14.82 14.9728 14.8132 15.0263 14.8064 15.08C14.7587 15.0811 14.7117 15.0822 14.6642 15.0838C14.6669 15.0615 14.6697 15.0393 14.6891 14.9771C14.71 14.9593 14.7357 14.9335 14.7534 14.9127C14.7679 14.9027 14.7868 14.8895 14.7999 14.8795C14.7968 14.8663 14.7913 14.848 14.7876 14.8342C14.7873 14.8341 14.7103 14.8125 14.5959 14.7725C14.584 14.7727 14.5712 14.773 14.5586 14.7735C14.548 14.7739 14.5368 14.7741 14.5198 14.7749C14.5075 14.7829 14.4917 14.7938 14.4794 14.8019C14.4691 14.8917 14.4631 14.951 14.323 14.9326C14.3252 14.91 14.3279 14.887 14.3429 14.8309C14.4976 14.6629 14.5566 14.5396 14.5198 14.4611C14.4912 14.462 14.4532 14.4623 14.4242 14.462C14.4295 14.3992 14.4355 14.3359 14.4409 14.2728C14.3926 14.1389 14.3653 14.0669 14.359 14.0568C14.3575 14.0568 13.9898 13.8813 13.8934 13.8254C13.7993 13.7789 13.7119 13.8436 13.621 13.8399C13.6011 13.8404 13.5807 13.8406 13.5514 13.8399C13.2124 13.7819 13.1884 13.7058 13.1218 13.5034C13.1049 13.502 13.0348 13.4682 12.9114 13.4017C12.9114 13.3893 12.9123 13.3768 12.9041 13.3632C12.7739 13.3449 12.7807 13.2677 12.7875 13.1932C12.7747 13.1935 12.7616 13.1935 12.7129 13.2024C12.6117 13.2322 12.5482 13.2454 12.5224 13.242C12.5139 13.1777 12.5096 13.1318 12.5093 13.1044C12.5369 13.099 12.5718 13.0832 12.5939 13.0666C12.5585 13.0172 12.5512 13.0071 12.4269 12.9864L12.3423 13.0508C12.3355 13.0508 12.329 13.0508 12.3134 13.0472C12.2354 13.0128 12.2286 13.0141 12.1668 13.024C12.1146 13.1332 12.0689 13.192 12.0296 13.2003C11.9517 13.1497 11.8985 13.0633 11.7961 13.0471C11.7323 13.0474 11.6685 13.0477 11.565 13.0299C11.5367 13.0234 11.4997 13.0158 11.4708 13.0106C11.4708 12.974 11.4708 12.9374 11.4351 12.901C11.3238 12.8946 11.2451 12.7691 11.1179 12.818C11.1169 12.8842 11.1169 12.8927 11.0641 12.9487C10.9533 12.9443 10.8971 13.0171 10.8971 13.0179C10.8513 13.1268 10.9432 13.2335 10.901 13.3419C10.7178 13.2404 10.8767 13.048 10.792 12.9184C10.8084 12.8482 10.9572 12.7363 10.9594 12.7347L10.9413 12.6973H10.8589C10.7468 12.7214 10.728 12.7293 10.7345 12.8546C10.663 12.8546 10.5933 12.8546 10.4902 12.8644C10.4395 12.9074 10.3322 12.9972 10.1226 12.9924C10.1226 13.0633 10.1231 13.1336 10.1059 13.2212C10.048 13.2643 10.0456 13.2663 9.96418 13.2668C9.9072 13.3653 9.90405 13.3932 9.89679 13.4392C9.75569 13.5351 9.72397 13.6145 9.71813 13.6534C9.74117 13.669 9.77652 13.684 9.8032 13.6895C9.79862 13.8369 9.96875 14.0185 9.78852 14.1315C9.77053 14.2778 9.7467 14.3666 9.71702 14.3981C9.68625 14.3992 9.64553 14.402 9.61538 14.405C9.62249 14.4417 9.63196 14.4908 9.63606 14.5275C9.60386 14.5443 9.56141 14.5678 9.53111 14.5867C9.52937 14.6077 9.52621 14.6357 9.52416 14.6568C9.42284 14.6783 9.36713 14.6903 9.37028 14.8606C9.32009 14.8601 9.27038 14.8595 9.22603 14.8863C9.2415 14.9815 9.20835 15.0791 9.23834 15.1736C9.25144 15.1801 9.26896 15.1891 9.28206 15.1954C9.32225 15.1796 9.37023 15.1757 9.426 15.1837C9.42647 15.2058 9.42742 15.2279 9.41242 15.2846C9.36539 15.3038 9.31157 15.3057 9.26722 15.3334C9.26901 15.3836 9.23492 15.431 9.16495 15.4756C9.15443 15.529 9.17311 15.586 9.22098 15.6464C9.2224 15.6577 9.2224 15.6683 9.22319 15.6795C9.23771 16.0031 9.6812 16.0213 9.71245 16.3337C9.71324 16.3573 9.71418 16.3808 9.71876 16.4091C10.0868 16.9517 10.2943 17.2255 10.3414 17.2304C10.3442 17.2306 10.5999 17.2811 10.8818 17.6132C10.9103 17.6143 10.9496 17.6148 10.9787 17.6146C10.9755 17.714 10.9733 17.8118 10.9709 17.9088C10.9629 17.9371 10.9601 17.9772 10.9629 18.0064L10.9547 18.0203C10.9544 18.0296 10.9544 18.0386 10.9564 18.0654C10.9601 18.0799 10.9642 18.0992 10.9673 18.1142C10.9673 18.1191 10.9668 18.1243 10.9501 18.1664C10.941 18.1917 10.9373 18.229 10.9405 18.2555L10.9324 18.2635C10.9324 18.2749 10.9324 18.2859 10.9436 18.3172C10.9436 18.3305 10.9446 18.3488 10.9446 18.3622V18.3767C10.9436 18.3857 10.9436 18.3947 10.9201 18.4364C10.9196 18.4645 10.9279 18.5022 10.9405 18.5273L10.9397 18.5533C10.9397 18.5617 10.9387 18.5702 10.9279 18.5952C10.9097 18.687 10.8324 18.7579 10.8302 18.8558C10.7689 19.0497 10.7281 19.1706 10.7075 19.2184C10.7075 19.2236 10.7075 19.2288 10.7094 19.2427C10.7708 19.5912 10.7846 19.6638 10.6207 19.8013C10.6207 19.8153 10.6207 19.8294 10.6239 19.8569C10.6231 19.8709 10.6217 19.8892 10.6207 19.9033L10.6272 19.9168C10.5964 19.9887 10.5284 20.0343 10.4932 20.1031C10.572 20.2368 10.5507 20.2805 10.4859 20.4092C10.4919 20.4216 10.4986 20.4384 10.5041 20.4515C10.5162 20.4699 10.5216 20.5015 10.5213 20.5238C10.5077 20.5274 10.4878 20.5331 10.4743 20.5367C10.4531 20.5987 10.4458 20.6414 10.4522 20.6649C10.4643 20.671 10.4815 20.6794 10.4937 20.6851H10.5579L10.5701 20.5284H10.6496C10.6496 20.5459 10.6496 20.5639 10.6365 20.5972C10.6253 20.6055 10.6094 20.6164 10.5971 20.6251C10.5971 20.6554 10.5971 20.6854 10.5917 20.7227C10.5868 20.7285 10.5764 20.7857 10.5604 20.8944C10.5407 20.883 10.5183 20.8624 10.5039 20.8461C10.5039 20.8407 10.503 20.8355 10.4967 20.7978C10.4967 20.8008 10.4967 20.8032 10.4681 20.8055C10.4691 20.8221 10.4694 20.8381 10.5076 20.8788C10.5211 20.902 10.5338 20.937 10.5374 20.9637C10.5044 20.9474 10.4749 20.9239 10.441 20.9092C10.4414 20.925 10.4427 20.9407 10.4034 20.9703C10.4034 20.9844 10.4034 21.0027 10.4042 21.0166C10.4323 21.0194 10.4698 21.0313 10.4934 21.0461C10.4912 21.0594 10.4866 21.0783 10.4848 21.0917C10.4979 21.0938 10.5159 21.0976 10.5297 21.0998C10.5342 21.1127 10.5406 21.1299 10.544 21.1429C10.4826 21.1485 10.438 21.1602 10.4102 21.1779C10.4105 21.1795 10.4105 21.1822 10.4228 21.2185C10.4329 21.2286 10.446 21.2415 10.4555 21.2521C10.4555 21.2537 10.4558 21.256 10.4567 21.301C10.4635 21.3263 10.4848 21.3582 10.505 21.3749L10.4757 21.3866L10.4992 21.3987C10.5091 21.3987 10.5191 21.3987 10.5232 21.4373C10.5377 21.4409 10.5562 21.4453 10.5698 21.4488L10.5707 21.4578L10.562 21.4715C10.5928 21.5263 10.6529 21.5517 10.6919 21.5986C10.706 21.6002 10.7249 21.6016 10.7389 21.603C10.7389 21.6065 10.7385 21.6096 10.7656 21.6303C10.7928 21.6347 10.8294 21.6406 10.857 21.6462C10.8611 21.6462 10.8647 21.6462 10.8955 21.6557C10.9291 21.6552 10.9621 21.6551 11.02 21.6522C11.0341 21.6384 11.0571 21.6262 11.0738 21.6172C11.0481 21.6106 11.011 21.6046 10.9834 21.6022C10.9851 21.5951 10.9874 21.5877 10.9454 21.5779C10.9413 21.5507 10.934 21.5146 10.9277 21.4881L10.9299 21.477C10.9286 21.4499 10.9228 21.4136 10.9163 21.3871C10.9173 21.3831 10.9173 21.379 10.9127 21.3634C10.9154 21.35 10.9163 21.3364 10.9285 21.2927C10.9552 21.2922 10.9818 21.2922 11.0095 21.2867C11.0112 21.2734 11.0131 21.2551 11.0148 21.2414C11.0899 21.1891 11.1551 21.1234 11.2375 21.0818C11.2407 21.0718 11.2435 21.0624 11.2086 21.0494C11.1941 21.0474 11.176 21.0439 11.1619 21.0423C11.1155 20.9957 11.0894 20.9605 11.0836 20.9367C11.0846 20.9318 11.0855 20.9266 11.0963 20.908C11.1202 20.8903 11.1565 20.8718 11.1842 20.8619C11.223 20.8619 11.2606 20.8619 11.2995 20.8613C11.3055 20.8317 11.3126 20.8019 11.342 20.7481C11.3628 20.7261 11.3874 20.6856 11.4159 20.6265C11.4732 20.631 11.5148 20.6179 11.5407 20.5874C11.5415 20.5819 11.5434 20.5759 11.527 20.5523H11.5252L11.524 20.5527H11.5186C11.5186 20.5527 11.5176 20.5527 11.5082 20.555C11.4856 20.5688 11.4485 20.5771 11.4217 20.5741C11.4207 20.5459 11.42 20.5088 11.4195 20.4807C11.4231 20.4619 11.4267 20.4431 11.4302 20.4243C11.443 20.4242 11.4556 20.4242 11.5104 20.4374C11.5218 20.446 11.5375 20.4565 11.5494 20.4649C11.5942 20.4644 11.6385 20.464 11.6879 20.4269C11.6897 20.4207 11.6914 20.4145 11.701 20.3846C11.7122 20.3771 11.7272 20.367 11.7381 20.3595C11.7435 20.3325 11.7432 20.2947 11.7381 20.2679C11.7413 20.2532 11.7459 20.2379 11.7489 20.2229C11.785 20.2228 11.8213 20.2221 11.8824 20.2168C11.8978 20.2164 11.9132 20.2163 11.9345 20.2161C11.9635 20.212 12.0001 20.2037 12.0277 20.1954C12.0653 20.1947 12.1024 20.1943 12.1761 20.2076C12.178 20.2065 12.3617 20.0808 12.4417 20.0092L12.4797 19.9691C12.4869 19.9486 12.4943 19.9273 12.5015 19.9053C12.4933 19.9058 12.4856 19.9058 12.4548 19.9014C12.4599 19.8873 12.4643 19.8734 12.4761 19.8305C12.4548 19.8042 12.4196 19.7743 12.3707 19.7407C12.3688 19.7273 12.3658 19.7094 12.3634 19.6959C12.3969 19.6954 12.4291 19.6947 12.463 19.6943C12.7083 19.7352 12.8815 19.7107 12.9826 19.6209C13.2637 19.3696 13.4054 19.244 13.4078 19.2441C13.3895 19.2662 13.3685 19.2981 13.3554 19.3235C13.391 19.3216 13.8926 18.96 13.8831 18.7849C13.8781 18.688 13.8727 18.5966 14.3233 18.3412C14.3686 18.3398 14.4144 18.3379 14.4586 18.3365C14.4713 18.3313 14.5253 18.2967 14.6205 18.2327C14.7333 18.2293 14.8451 18.2247 14.9682 18.1945C14.9799 18.1699 15.0038 18.1406 15.0251 18.1246C15.0578 18.1159 15.1963 17.9669 15.4409 17.6776C15.4551 17.6741 15.5094 17.5849 15.6039 17.41C15.607 17.4002 15.6105 17.3908 15.6345 17.3556C15.7008 17.2656 15.7283 17.2214 15.7518 17.1508C15.7568 17.1363 15.7612 17.1221 15.7702 17.0784C15.7721 17.0643 15.7743 17.0463 15.7758 17.0331C15.783 17.0107 15.7904 16.9879 15.7983 16.9381C15.8174 16.877 15.8361 16.8154 15.8976 16.7449C15.8979 16.7449 16.2098 16.4855 16.2939 16.4061L16.5721 16.0806C16.624 16.0064 16.6563 15.9465 16.6691 15.9008C16.6957 15.5491 16.6482 15.5237 16.5925 15.4944L16.5933 15.4926Z" fill="#A2E363"/>
<path d="M10.0496 11.0365C10.0252 11.0365 10.0004 11.0362 9.96819 11.0361C9.88723 11.0342 9.80548 11.0626 9.72483 11.0307C9.67101 11.0092 9.65002 10.9537 9.60614 10.921C9.54017 10.871 9.45921 10.8471 9.38771 10.8056C9.33069 10.7754 9.29807 10.7502 9.28986 10.7298C9.27992 10.7066 9.27219 10.6866 9.22294 10.6836C9.16408 10.685 9.10426 10.6852 9.0465 10.688C9.03987 10.6884 9.01498 10.6995 8.97185 10.7213C8.93791 10.7385 8.91077 10.7098 8.88046 10.7066C8.82791 10.7055 8.77646 10.7051 8.71712 10.704C8.62421 10.6985 8.57155 10.7005 8.55913 10.7101C8.39847 10.8336 8.64925 11.055 8.84101 10.9594C8.88678 10.9368 8.91613 10.8907 8.96774 10.8763C8.975 10.8738 9.05833 10.8754 9.10316 10.8845C9.10442 10.885 9.25751 10.9357 9.2755 11.0135C9.28229 11.0441 9.28734 11.0466 9.31038 11.0569C9.3118 11.0577 9.45432 11.1115 9.49188 11.1076C9.54112 11.1016 9.55611 11.1152 9.57963 11.1527C9.59178 11.1709 9.65744 11.2626 9.77502 11.2711C9.96472 11.2725 10.1552 11.2738 10.3467 11.2746C10.2977 11.1991 10.148 11.0517 10.0496 11.0365Z" fill="#A2E363"/>
<path d="M9.98354 11.623C9.9646 11.6081 9.93966 11.6155 9.91836 11.6076C9.89389 11.5983 9.87669 11.5781 9.8527 11.5687L9.83045 11.5646C9.75848 11.5638 9.68557 11.5633 9.61328 11.5625C9.62733 11.5852 9.63727 11.6102 9.65274 11.6324L9.6731 11.6525C9.68888 11.6642 9.69204 11.6637 9.73291 11.6571C9.76779 11.6509 9.83376 11.6968 9.83424 11.6973C9.84734 11.7074 9.84733 11.718 9.84733 11.7439C9.84733 11.76 9.8486 11.7641 9.85317 11.7751C9.87811 11.771 9.9021 11.7876 9.92735 11.7756C9.93798 11.7709 9.95971 11.7488 9.99253 11.7093L10.002 11.6987C9.99159 11.6746 10.0097 11.6435 9.98338 11.6228L9.98354 11.623Z" fill="#A2E363"/>
<path d="M16.4766 1.50391L16.4912 1.51306L16.4846 1.50848C16.4819 1.50691 16.4792 1.50548 16.4766 1.50391Z" fill="#A2E363"/>
<path d="M16.4625 1.49535C16.4431 1.48398 16.4222 1.4723 16.4023 1.46094L16.409 1.4652C16.4312 1.47814 16.454 1.49109 16.4767 1.50419L16.4634 1.49582L16.4626 1.49535H16.4625Z" fill="#A2E363"/>
<path d="M12.2161 5.6247C12.1831 5.62691 12.179 5.62691 12.1627 5.62028C12.1057 5.59802 12.0849 5.57229 12.0784 5.56393C12.0562 5.53677 12.044 5.53141 12.0278 5.53125C12.0128 5.53188 11.9975 5.53709 11.983 5.53472C11.964 5.54372 11.9405 5.55619 11.9219 5.56535C11.9432 5.57655 11.9691 5.58082 11.9875 5.59613C12.0069 5.61112 12.0151 5.63433 12.0324 5.65185L12.0486 5.66369C12.068 5.67742 12.0884 5.68926 12.1073 5.70362C12.1245 5.71657 12.1375 5.73282 12.1539 5.74498C12.1706 5.75603 12.1774 5.75997 12.1936 5.76408C12.2126 5.76866 12.2453 5.77671 12.3054 5.66006L12.3076 5.65485C12.2877 5.64759 12.2705 5.63322 12.2502 5.62628C12.2383 5.62233 12.2216 5.62407 12.2157 5.62438L12.2161 5.6247Z" fill="#A2E363"/>
<path d="M9.55847 3.11275C9.55216 3.11633 9.53932 3.11975 9.51996 3.12301C9.50592 3.12585 9.48919 3.13059 9.42811 3.16532C9.4128 3.17368 9.39875 3.18142 9.38281 3.18931C9.39765 3.20146 9.40649 3.21962 9.42716 3.22688C9.42716 3.22688 9.44389 3.23146 9.47972 3.22262C9.51333 3.21441 9.55847 3.183 9.56352 3.17921C9.57015 3.17489 9.5833 3.16032 9.60298 3.13548L9.60834 3.12901L9.60471 3.08008C9.58751 3.08908 9.57583 3.10454 9.55863 3.11275H9.55847Z" fill="#A2E363"/>
<path d="M9.75391 3.2037L9.77379 3.33109C9.81372 3.3314 9.85428 3.33172 9.89547 3.33219L9.94756 3.30662C9.94977 3.29005 9.95119 3.27316 9.95355 3.25674C9.95261 3.22707 9.94992 3.19755 9.95087 3.16771L9.85539 3.1543L9.75391 3.20386V3.2037Z" fill="#A2E363"/>
<path d="M10.3075 2.29899L10.4025 2.27768L10.4524 2.20239L10.4162 2.12109C10.3188 2.12488 10.2678 2.12767 10.2633 2.12946C10.2578 2.13151 10.2303 2.15677 10.1836 2.21643L10.2216 2.28731L10.3075 2.29899Z" fill="#A2E363"/>
<path d="M11.7068 11.5106C11.6811 11.5106 11.6557 11.511 11.6318 11.511C11.5921 11.5036 11.5594 11.4768 11.5187 11.4733C11.5065 11.4735 11.4937 11.4735 11.4806 11.4735C11.4481 11.4836 11.4363 11.521 11.4028 11.5304C11.4023 11.5304 11.2833 11.5328 11.2734 11.5323C11.2208 11.5312 11.2 11.476 11.152 11.4667C11.0924 11.4547 11.0566 11.3956 10.9933 11.3918L10.7248 11.3789C10.697 11.3794 10.6491 11.3856 10.581 11.3975C10.5801 11.4735 10.5801 11.5495 10.5801 11.6255C10.6086 11.6564 10.6947 11.7495 10.7303 11.7587H10.8113C10.9072 11.7636 10.9587 11.6616 11.0534 11.6618C11.0968 11.6618 11.1358 11.6832 11.1797 11.6832C11.2226 11.6831 11.2628 11.6635 11.3062 11.6648C11.4398 11.6686 11.575 11.6411 11.5927 11.634C11.6252 11.6209 11.6361 11.6209 11.6683 11.6335C11.6976 11.645 11.8272 11.6607 11.8561 11.6613C11.8823 11.6613 11.9072 11.6613 11.9322 11.6608C11.9588 11.6578 11.9765 11.6381 11.9983 11.6264L12.0082 11.6222C11.9869 11.6023 11.9486 11.615 11.9323 11.5844C11.9137 11.5481 11.9377 11.5118 11.9323 11.4754C11.7942 11.5068 11.7857 11.5083 11.7069 11.5106H11.7068Z" fill="#A2E363"/>
<path opacity="0.19" d="M17.9475 2.48047C19.4948 4.37482 20.4248 6.79308 20.4283 9.42823C20.4362 15.5032 15.5178 20.4283 9.44307 20.428C6.8025 20.428 4.37847 19.4973 2.48047 17.9467C4.50079 20.4201 7.57411 21.9999 11.0147 21.9999C17.0894 22.0003 22.0078 17.0751 21.9999 11.0003C21.9954 7.56497 20.4166 4.49795 17.9475 2.48063V2.48047Z" fill="black"/>
</svg>
