<svg width="18" height="32" viewBox="0 0 18 32" fill="none" xmlns="http://www.w3.org/2000/svg">
<path fill-rule="evenodd" clip-rule="evenodd" d="M13.0019 27.12L14.5258 32.0004H17.6315V23.86L14.4679 20.7158" fill="#8377FC"/>
<path fill-rule="evenodd" clip-rule="evenodd" d="M11.4975 29.4346V30.9199H6.077V29.4346" fill="#B28BFF"/>
<path fill-rule="evenodd" clip-rule="evenodd" d="M4.62959 27.1191L3.10571 31.9994H3.05176e-05L3.05176e-05 23.8591L3.16356 20.7148" fill="#8377FC"/>
<path fill-rule="evenodd" clip-rule="evenodd" d="M8.7572 0.0169309C8.68162 -0.00564365 8.6012 -0.00564365 8.52572 0.0169309C8.44627 0.0457665 8.37845 0.0999986 8.33278 0.17125C4.68107 4.33326 2.66567 9.68027 2.66161 15.2173C2.6692 17.3359 2.83692 19.4509 3.1631 21.5444C3.51654 24.2816 4.30453 26.9449 5.49719 29.4338H8.73788L8.7572 0.0169309Z" fill="#0DBD73"/>
<path fill-rule="evenodd" clip-rule="evenodd" d="M8.64307 29.4339H11.9609C13.1383 26.958 13.9319 24.3172 14.3142 21.6023C14.6355 19.5086 14.7967 17.3935 14.7965 15.2753C14.8176 9.75446 12.8448 4.41159 9.24103 0.22921C9.18124 0.155401 9.10426 0.097378 9.01678 0.0604298C8.92931 0.0233933 8.83407 0.00849039 8.73954 0.0169559L8.64307 29.4339Z" fill="#0EA05D"/>
<path fill-rule="evenodd" clip-rule="evenodd" d="M11.4204 14.8713C11.3865 15.5346 11.1041 16.1608 10.6294 16.6254C10.1547 17.0899 9.52241 17.3587 8.85849 17.3781C8.19456 17.3976 7.54775 17.1663 7.04661 16.7304C6.54547 16.2944 6.22687 15.6858 6.1543 15.0256V14.8713C6.21073 14.2118 6.51258 13.5976 7.00014 13.15C7.4877 12.7025 8.12552 12.4541 8.78732 12.4541C9.44913 12.4541 10.0869 12.7025 10.5744 13.15C11.062 13.5976 11.3639 14.2118 11.4204 14.8713Z" fill="#683BA3"/>
</svg>
