<svg width="19" height="31" viewBox="0 0 19 31" fill="none" xmlns="http://www.w3.org/2000/svg">
<path fill-rule="evenodd" clip-rule="evenodd" d="M17.6969 24.6167C17.0222 24.2555 16.3011 23.9887 15.5539 23.8238C15.1038 23.6952 14.0752 23.4809 14.0752 23.4809C11.0885 22.9826 8.03994 22.9826 5.05326 23.4809C4.47466 23.5881 3.93891 23.6952 3.44602 23.8238C2.69952 23.9913 1.97883 24.258 1.30304 24.6167C0.916556 24.7814 0.586857 25.056 0.3552 25.4066C0.123544 25.7571 0 26.168 0 26.5883C0 27.0084 0.123544 27.4193 0.3552 27.7699C0.586857 28.1204 0.916556 28.3951 1.30304 28.5598C1.97315 28.9359 2.69534 29.2103 3.44602 29.3741C5.4286 29.8228 7.45672 30.0386 9.48923 30.017C11.5289 30.0396 13.5643 29.8238 15.5539 29.3741C16.3053 29.2125 17.0278 28.9379 17.6969 28.5598C18.0834 28.3951 18.4131 28.1204 18.6448 27.7699C18.8765 27.4193 19 27.0084 19 26.5883C19 26.168 18.8765 25.7571 18.6448 25.4066C18.4131 25.056 18.0834 24.7814 17.6969 24.6167Z" fill="#0AA050"/>
<path fill-rule="evenodd" clip-rule="evenodd" d="M17.054 20.9524C16.4391 20.5882 15.7752 20.3139 15.0825 20.1381L13.711 19.8166C10.9617 19.3189 8.14543 19.3189 5.3962 19.8166C4.9105 19.9024 4.41761 20.0095 3.91754 20.1381C3.22482 20.3139 2.56093 20.5882 1.946 20.9524C1.58169 21.1424 1.27343 21.4243 1.05163 21.7701C0.829831 22.1158 0.70232 22.5137 0.681641 22.924C0.700177 23.3348 0.826829 23.7335 1.04884 24.0797C1.27085 24.4259 1.5803 24.7072 1.946 24.8955C2.55654 25.2685 3.22182 25.5432 3.91754 25.7098C5.74154 26.1492 7.61333 26.3579 9.4893 26.3313C11.3723 26.3591 13.2514 26.1502 15.0825 25.7098C15.7782 25.5432 16.4435 25.2685 17.054 24.8955C17.4185 24.708 17.7261 24.4262 17.9446 24.0795C18.1632 23.7327 18.285 23.3337 18.297 22.924C18.2827 22.5148 18.1601 22.1167 17.9418 21.7703C17.7234 21.424 17.417 21.1418 17.054 20.9524Z" fill="#E2E0FF"/>
<path fill-rule="evenodd" clip-rule="evenodd" d="M16.475 17.3743C15.9094 17.0036 15.2868 16.7286 14.632 16.5599L13.3891 16.2385C10.8561 15.7406 8.2503 15.7406 5.71718 16.2385C5.26716 16.2385 4.7957 16.4314 4.34568 16.5599C3.69743 16.7282 3.08185 17.0034 2.52414 17.3743C2.17676 17.573 1.8881 17.8601 1.68741 18.2063C1.48661 18.5525 1.38086 18.9456 1.38086 19.3458C1.38086 19.746 1.48661 20.1391 1.68741 20.4853C1.8881 20.8315 2.17676 21.1186 2.52414 21.3174C3.08764 21.6918 3.71092 21.9672 4.3671 22.1317C6.03799 22.5716 7.76127 22.7808 9.48883 22.7532C11.2235 22.7806 12.9538 22.5715 14.632 22.1317C15.2868 21.963 15.9094 21.6879 16.475 21.3174C16.8223 21.1186 17.111 20.8315 17.3118 20.4853C17.5126 20.1391 17.6182 19.746 17.6182 19.3458C17.6182 18.9456 17.5126 18.5525 17.3118 18.2063C17.111 17.8601 16.8223 17.573 16.475 17.3743Z" fill="#5A49FF"/>
<path fill-rule="evenodd" clip-rule="evenodd" d="M15.8963 13.9016C15.3916 13.5336 14.8256 13.258 14.2248 13.0873L13.0676 12.7658C10.7452 12.2551 8.33955 12.2551 6.0172 12.7658C5.61003 12.7658 5.18144 12.9587 4.77427 13.0873C4.17338 13.258 3.60741 13.5336 3.10274 13.9016C2.77701 14.118 2.50914 14.4108 2.32238 14.7544C2.13562 15.098 2.03564 15.482 2.03125 15.8731C2.03746 16.2638 2.13819 16.6472 2.32484 16.9905C2.51139 17.3338 2.77829 17.6269 3.10274 17.8447C3.61234 18.2044 4.17681 18.4794 4.77427 18.659C6.30672 19.0966 7.89531 19.306 9.48883 19.2805C11.0894 19.3075 12.6853 19.098 14.2248 18.659C14.8222 18.4794 15.3866 18.2044 15.8963 17.8447C16.218 17.6258 16.4817 17.332 16.6647 16.9885C16.8476 16.645 16.9443 16.2622 16.9464 15.8731C16.9461 15.4837 16.8502 15.1002 16.6672 14.7564C16.4841 14.4126 16.2194 14.1191 15.8963 13.9016Z" fill="#FFB800"/>
<path fill-rule="evenodd" clip-rule="evenodd" d="M15.2325 10.2157C14.7861 9.85517 14.2778 9.57926 13.7324 9.4014L12.6823 9.07995C10.6132 8.5697 8.451 8.5697 6.38196 9.07995C6.005 9.16717 5.63309 9.27442 5.2676 9.4014C4.72018 9.57466 4.21101 9.85099 3.76752 10.2157C3.46804 10.4486 3.22695 10.7479 3.06323 11.0902C2.89961 11.4323 2.81785 11.808 2.82461 12.1873C2.82118 12.5659 2.90433 12.9405 3.06773 13.2821C3.23113 13.6238 3.4705 13.9237 3.76752 14.1588C4.21765 14.5081 4.72532 14.7764 5.2676 14.9517C6.65036 15.4034 8.09902 15.6207 9.55357 15.5946C11.0079 15.6183 12.4561 15.401 13.8395 14.9517C14.3798 14.7719 14.8867 14.5039 15.3396 14.1588C15.6365 13.9237 15.8759 13.6238 16.0393 13.2821C16.2027 12.9405 16.286 12.5659 16.2825 12.1873C16.2827 11.809 16.1982 11.4355 16.035 11.0944C15.8718 10.7531 15.6342 10.4528 15.3396 10.2157" fill="white"/>
<path fill-rule="evenodd" clip-rule="evenodd" d="M14.7177 6.6174C14.3232 6.26831 13.8647 5.99905 13.3676 5.8245C13.0676 5.69592 12.4461 5.50305 12.4461 5.50305C10.602 4.99377 8.65424 4.99377 6.8101 5.50305C6.46476 5.57774 6.12756 5.68531 5.8029 5.8245C5.31001 6.00794 4.85302 6.27624 4.45282 6.6174C4.18773 6.8751 3.97708 7.18326 3.83318 7.52378C3.68938 7.86419 3.61523 8.2301 3.61523 8.59966C3.61523 8.96933 3.68938 9.33524 3.83318 9.67565C3.97708 10.0162 4.18773 10.3243 4.45282 10.5819C4.85302 10.9231 5.31001 11.1915 5.8029 11.3748C7.01026 11.8179 8.28855 12.0357 9.57455 12.0177C10.8673 12.0341 12.1523 11.8163 13.3676 11.3748C13.8605 11.1915 14.3174 10.9231 14.7177 10.5819C14.9827 10.3243 15.1934 10.0162 15.3372 9.67565C15.4811 9.33524 15.5553 8.96933 15.5553 8.59966C15.5553 8.2301 15.4811 7.86419 15.3372 7.52378C15.1934 7.18326 14.9827 6.8751 14.7177 6.6174Z" fill="#FFB800"/>
<path fill-rule="evenodd" clip-rule="evenodd" d="M14.4183 4.38711C14.2801 5.59458 13.7025 6.70903 12.7954 7.51801C11.8885 8.32709 10.7156 8.77412 9.50017 8.77412C8.28489 8.77412 7.11193 8.32709 6.20502 7.51801C5.298 6.70903 4.72036 5.59458 4.58203 4.38711C4.72036 3.17965 5.298 2.06519 6.20502 1.25622C7.11193 0.447133 8.28489 0 9.50017 0C10.7156 0 11.8885 0.447133 12.7954 1.25622C13.7025 2.06519 14.2801 3.17965 14.4183 4.38711Z" fill="#FF8C00"/>
</svg>
