<svg width="19" height="31" viewBox="0 0 19 31" fill="none" xmlns="http://www.w3.org/2000/svg">
<path fill-rule="evenodd" clip-rule="evenodd" d="M17.6969 24.617C17.0222 24.2558 16.3011 23.989 15.5539 23.8241C15.1038 23.6955 14.0752 23.4812 14.0752 23.4812C11.0885 22.9828 8.03994 22.9828 5.05326 23.4812C4.47466 23.5883 3.93891 23.6955 3.44602 23.8241C2.69952 23.9915 1.97883 24.2582 1.30304 24.617C0.916556 24.7817 0.586857 25.0563 0.3552 25.4069C0.123544 25.7574 0 26.1683 0 26.5885C0 27.0086 0.123544 27.4196 0.3552 27.7701C0.586857 28.1206 0.916556 28.3954 1.30304 28.5601C1.97315 28.9361 2.69534 29.2106 3.44602 29.3744C5.4286 29.823 7.45672 30.0388 9.48923 30.0173C11.5289 30.0399 13.5643 29.8241 15.5539 29.3744C16.3053 29.2127 17.0278 28.9382 17.6969 28.5601C18.0834 28.3954 18.4131 28.1206 18.6448 27.7701C18.8765 27.4196 19 27.0086 19 26.5885C19 26.1683 18.8765 25.7574 18.6448 25.4069C18.4131 25.0563 18.0834 24.7817 17.6969 24.617Z" fill="#0AA050"/>
<path fill-rule="evenodd" clip-rule="evenodd" d="M17.0535 20.9524C16.4386 20.5882 15.7747 20.3139 15.082 20.1381L13.7105 19.8166C10.9613 19.3189 8.14495 19.3189 5.39571 19.8166C4.91001 19.9024 4.41712 20.0095 3.91706 20.1381C3.22434 20.3139 2.56044 20.5882 1.94551 20.9524C1.58121 21.1424 1.27294 21.4243 1.05114 21.7701C0.829342 22.1158 0.701832 22.5137 0.681152 22.924C0.699689 23.3348 0.82634 23.7335 1.04835 24.0797C1.27037 24.4259 1.57981 24.7072 1.94551 24.8955C2.55605 25.2685 3.22134 25.5432 3.91706 25.7098C5.74105 26.1492 7.61284 26.3579 9.48881 26.3313C11.3718 26.3591 13.2509 26.1502 15.082 25.7098C15.7777 25.5432 16.443 25.2685 17.0535 24.8955C17.4181 24.708 17.7256 24.4262 17.9442 24.0795C18.1627 23.7327 18.2845 23.3337 18.2965 22.924C18.2822 22.5148 18.1596 22.1167 17.9413 21.7703C17.7229 21.424 17.4166 21.1418 17.0535 20.9524Z" fill="#E2E0FF"/>
<path fill-rule="evenodd" clip-rule="evenodd" d="M16.4752 17.3745C15.9097 17.0038 15.287 16.7288 14.6322 16.5601L13.3893 16.2387C10.8563 15.7408 8.25054 15.7408 5.71743 16.2387C5.2674 16.2387 4.79595 16.4315 4.34592 16.5601C3.69767 16.7283 3.0821 17.0036 2.52439 17.3745C2.17701 17.5732 1.88835 17.8603 1.68766 18.2065C1.48686 18.5527 1.3811 18.9458 1.3811 19.346C1.3811 19.7462 1.48686 20.1393 1.68766 20.4855C1.88835 20.8317 2.17701 21.1188 2.52439 21.3175C3.08788 21.692 3.71117 21.9674 4.36735 22.1319C6.03823 22.5718 7.76151 22.781 9.48908 22.7533C11.2237 22.7808 12.9541 22.5717 14.6322 22.1319C15.287 21.9632 15.9097 21.6881 16.4752 21.3175C16.8226 21.1188 17.1112 20.8317 17.312 20.4855C17.5128 20.1393 17.6185 19.7462 17.6185 19.346C17.6185 18.9458 17.5128 18.5527 17.312 18.2065C17.1112 17.8603 16.8226 17.5732 16.4752 17.3745Z" fill="#5A49FF"/>
<path fill-rule="evenodd" clip-rule="evenodd" d="M15.8963 13.9026C15.3916 13.5346 14.8256 13.2589 14.2248 13.0882L13.0676 12.7668C10.7452 12.2561 8.33955 12.2561 6.0172 12.7668C5.61003 12.7668 5.18144 12.9597 4.77427 13.0882C4.17338 13.2589 3.60741 13.5346 3.10274 13.9026C2.77701 14.119 2.50914 14.4117 2.32238 14.7554C2.13562 15.099 2.03564 15.483 2.03125 15.8741C2.03746 16.2648 2.13819 16.6482 2.32484 16.9915C2.51139 17.3348 2.77829 17.6278 3.10274 17.8457C3.61234 18.2054 4.17681 18.4804 4.77427 18.66C6.30672 19.0976 7.89531 19.307 9.48883 19.2815C11.0894 19.3085 12.6853 19.099 14.2248 18.66C14.8222 18.4804 15.3866 18.2054 15.8963 17.8457C16.218 17.6268 16.4817 17.333 16.6647 16.9894C16.8476 16.646 16.9443 16.2632 16.9464 15.8741C16.9461 15.4846 16.8502 15.1011 16.6672 14.7574C16.4841 14.4136 16.2194 14.1201 15.8963 13.9026Z" fill="#FFB800"/>
<path fill-rule="evenodd" clip-rule="evenodd" d="M15.2316 10.2167C14.7852 9.85615 14.2769 9.58024 13.7315 9.40237L12.6815 9.08093C10.6123 8.57068 8.45015 8.57068 6.3811 9.08093C6.00415 9.16814 5.63223 9.2754 5.26675 9.40237C4.71932 9.57563 4.21015 9.85197 3.76666 10.2167C3.46718 10.4495 3.2261 10.7489 3.06237 11.0911C2.89876 11.4333 2.817 11.8089 2.82375 12.1882C2.82032 12.5669 2.90347 12.9415 3.06687 13.2831C3.23028 13.6248 3.46965 13.9247 3.76666 14.1598C4.2168 14.5091 4.72447 14.7774 5.26675 14.9527C6.64951 15.4043 8.09816 15.6216 9.55271 15.5956C11.007 15.6193 12.4553 15.402 13.8387 14.9527C14.3789 14.7729 14.8858 14.5049 15.3388 14.1598C15.6357 13.9247 15.875 13.6248 16.0385 13.2831C16.2019 12.9415 16.2851 12.5669 16.2817 12.1882C16.2819 11.81 16.1974 11.4365 16.0342 11.0953C15.871 10.7541 15.6333 10.4538 15.3388 10.2167" fill="white"/>
<path fill-rule="evenodd" clip-rule="evenodd" d="M14.7172 6.61643C14.3227 6.26733 13.8642 5.99807 13.3671 5.82352C13.0671 5.69494 12.4457 5.50208 12.4457 5.50208C10.6015 4.9928 8.65375 4.9928 6.80961 5.50208C6.46427 5.57676 6.12707 5.68434 5.80241 5.82352C5.30953 6.00696 4.85253 6.27526 4.45233 6.61643C4.18724 6.87412 3.97659 7.18228 3.83269 7.5228C3.68889 7.86321 3.61475 8.22913 3.61475 8.59869C3.61475 8.96835 3.68889 9.33426 3.83269 9.67468C3.97659 10.0152 4.18724 10.3234 4.45233 10.5809C4.85253 10.9221 5.30953 11.1905 5.80241 11.3738C7.00977 11.8169 8.28806 12.0347 9.57406 12.0167C10.8668 12.0331 12.1519 11.8153 13.3671 11.3738C13.86 11.1905 14.3169 10.9221 14.7172 10.5809C14.9822 10.3234 15.193 10.0152 15.3368 9.67468C15.4807 9.33426 15.5548 8.96835 15.5548 8.59869C15.5548 8.22913 15.4807 7.86321 15.3368 7.5228C15.193 7.18228 14.9822 6.87412 14.7172 6.61643Z" fill="#FFB800"/>
<path fill-rule="evenodd" clip-rule="evenodd" d="M14.418 4.38711C14.2797 5.59458 13.7021 6.70903 12.7951 7.51801C11.8882 8.32709 10.7152 8.77412 9.49981 8.77412C8.28452 8.77412 7.11156 8.32709 6.20465 7.51801C5.29763 6.70903 4.71999 5.59458 4.58167 4.38711C4.71999 3.17965 5.29763 2.06519 6.20465 1.25622C7.11156 0.447133 8.28452 0 9.49981 0C10.7152 0 11.8882 0.447133 12.7951 1.25622C13.7021 2.06519 14.2797 3.17965 14.418 4.38711Z" fill="#FF8C00"/>
</svg>
