<svg width="55" height="55" viewBox="0 0 55 55" fill="none" xmlns="http://www.w3.org/2000/svg">
<path d="M55 27.499C55 37.6952 49.4523 46.595 41.2099 51.3435C37.1749 53.6716 32.4927 55 27.5 55C17.1419 55 8.12017 49.2718 3.42999 40.8107C1.24618 36.8677 0 32.3296 0 27.499C0 24.4756 0.488853 21.5684 1.38842 18.8476C3.03329 13.8807 6.05657 9.541 10.0055 6.2832C14.7618 2.3562 20.8544 0 27.5 0C27.6843 0 27.8686 0 28.051 0.00601071C38.9179 0.218389 48.2382 6.734 52.5097 16.0486C54.1084 19.5348 55 23.4137 55 27.499Z" fill="white"/>
<path d="M49.4784 14.8745C35.4819 10.4286 18.9571 17.6935 18.9571 17.6935C20.2413 10.7191 22.91 5.60195 26.2438 1.85528C27.3397 0.617071 28.9706 -0.0100463 30.6134 0.174282C39.1884 1.14 46.5693 6.04875 50.8988 13.0432C51.5039 14.021 50.5723 15.2211 49.4784 14.8725V14.8745Z" fill="#FFF24F"/>
<path d="M32.7268 5.62184C30.8174 5.89833 29.5813 3.6363 30.8575 2.18973C30.8675 2.1777 30.8795 2.16568 30.8896 2.15366C31.0939 1.92325 31.3864 1.79102 31.693 1.79102C31.733 1.79102 31.7731 1.79302 31.8132 1.79703C33.9068 2.03345 35.8502 2.82686 37.469 4.07509C38.038 4.51387 37.7055 5.4315 36.9862 5.39744C36.6736 5.38141 36.3571 5.3754 36.0385 5.3754C34.8905 5.3754 33.7746 5.47157 32.7268 5.62385V5.62184Z" fill="white"/>
<path d="M18.956 17.6933C11.0963 15.6517 5.9573 16.2908 2.59944 18.096C2.18471 18.3184 1.71589 17.9057 1.8882 17.4689C3.43089 13.5359 5.85111 10.0437 8.91246 7.23667C9.54155 6.65964 10.5052 6.65363 11.1524 7.21463C16.2292 11.6145 18.958 17.6953 18.958 17.6953L18.956 17.6933Z" fill="#70E2D2"/>
<path d="M37.719 53.0403C34.5594 54.3066 31.1114 54.9998 27.4991 54.9998C18.7298 54.9998 10.9182 50.8965 5.88339 44.5031C4.53303 42.7901 3.86787 40.6523 3.98608 38.5105C4.01813 37.9575 4.10028 37.4065 4.23651 36.8595C6.21597 28.9514 10.4614 21.4741 18.9542 17.6934C18.9542 17.6934 30.847 19.1339 40.1352 47.8631C40.1352 47.8711 40.1412 47.8791 40.1432 47.8872C40.8043 49.9729 39.7505 52.2269 37.7169 53.0423L37.719 53.0403Z" fill="#E54773"/>
<path d="M22.0296 21.5474C24.6564 19.4533 25.4105 16.0302 23.7137 13.9017C22.017 11.7731 18.5121 11.7452 15.8852 13.8392C13.2584 15.9333 12.5044 19.3564 14.2011 21.4849C15.8978 23.6135 19.4027 23.6415 22.0296 21.5474Z" fill="#E6E6E6"/>
<path d="M20.8629 20.0862C19.232 21.3865 17.0562 21.3685 16.0044 20.0481C14.9505 18.7278 15.4194 16.602 17.0502 15.3037C18.6811 14.0034 20.8568 14.0214 21.9087 15.3417C22.9625 16.6621 22.4937 18.7879 20.8629 20.0882V20.0862Z" fill="white"/>
<path d="M37.719 53.0416C34.5594 54.3079 31.1114 55.0011 27.4991 55.0011C18.7298 55.0011 10.9182 50.8978 5.88339 44.5044C4.53303 42.7913 3.86787 40.6535 3.98608 38.5117C6.96127 45.6184 15.5202 54.8208 40.1432 47.8864C40.8043 49.9721 39.7505 52.2262 37.7169 53.0416H37.719Z" fill="#CA0B40"/>
</svg>
