<svg width="16" height="16" viewBox="0 0 16 16" fill="none" xmlns="http://www.w3.org/2000/svg">
<g opacity="0.9">
<path d="M13.1404 3.42183C13.0324 3.36602 12.9273 3.30483 12.8254 3.23851C12.5292 3.04267 12.2576 2.81191 12.0165 2.55121C11.4132 1.86091 11.1879 1.16061 11.1049 0.6703H11.1082C11.0389 0.26332 11.0675 0 11.0719 0H8.324V10.6255C8.324 10.7681 8.324 10.9091 8.31801 11.0484C8.31801 11.0658 8.31634 11.0818 8.31534 11.1004C8.31534 11.1081 8.31534 11.1161 8.31367 11.1241C8.31367 11.1261 8.31367 11.1281 8.31367 11.1301C8.28471 11.5114 8.1625 11.8796 7.95779 12.2026C7.75309 12.5255 7.47216 12.7931 7.13973 12.982C6.79326 13.1791 6.4014 13.2825 6.00279 13.282C4.72252 13.282 3.6849 12.2381 3.6849 10.9488C3.6849 9.65952 4.72252 8.61557 6.00279 8.61557C6.24514 8.61535 6.48599 8.65348 6.71642 8.72856L6.71975 5.9307C6.02024 5.84035 5.3096 5.89594 4.63265 6.09398C3.9557 6.29201 3.32713 6.62819 2.78661 7.08131C2.31299 7.49283 1.91482 7.98383 1.61001 8.53224C1.49401 8.73223 1.05637 9.53586 1.00337 10.8401C0.970039 11.5804 1.19236 12.3474 1.29836 12.6644V12.671C1.36502 12.8577 1.62334 13.4947 2.04432 14.0316C2.38378 14.4624 2.78484 14.8407 3.23459 15.1546V15.1479L3.24126 15.1546C4.57153 16.0585 6.04645 15.9992 6.04645 15.9992C6.30177 15.9889 7.15706 15.9992 8.12835 15.5389C9.20563 15.0286 9.81893 14.2683 9.81893 14.2683C10.2107 13.814 10.5223 13.2963 10.7402 12.7374C10.9889 12.0837 11.0719 11.2998 11.0719 10.9865V5.3494C11.1052 5.3694 11.5492 5.66305 11.5492 5.66305C11.5492 5.66305 12.1888 6.07303 13.1868 6.34002C13.9027 6.53001 14.8673 6.57001 14.8673 6.57001V3.84214C14.5294 3.87881 13.8431 3.77215 13.1404 3.42183Z" fill="white"/>
</g>
</svg>
