<svg width="32" height="28" viewBox="0 0 32 28" fill="none" xmlns="http://www.w3.org/2000/svg">
<path d="M5.14872 0.317004C4.75804 0.0520458 4.28043 -0.0525197 3.81478 0.0249282L1.4771 0.689879C1.0918 0.806256 0.748576 1.03203 0.489156 1.33977C0.229747 1.6475 0.0653066 2.02395 0.0157857 2.42337C-0.033732 2.82282 0.0338311 3.22809 0.210256 3.58986C0.386682 3.95162 0.66436 4.25438 1.00958 4.46131L3.23298 5.93661C3.23298 5.93661 4.06676 8.59725 4.36546 10.3522C4.78181 12.7985 4.67883 16.5434 4.65162 17.3274L4.64422 17.3445V27.1628C4.64146 27.2428 4.65469 27.3225 4.68308 27.3973C4.71146 27.4722 4.75446 27.5406 4.80959 27.5987C4.86471 27.6567 4.93084 27.7032 5.00412 27.7354C5.07741 27.7676 5.1564 27.7848 5.23644 27.7861H6.83643C6.91693 27.7848 6.99638 27.7676 7.07023 27.7355C7.14408 27.7035 7.21096 27.6571 7.26692 27.5993C7.32286 27.5414 7.36685 27.473 7.39638 27.3981C7.42592 27.3232 7.44044 27.2433 7.43907 27.1628V25.303H9.45462V27.1628C9.45325 27.2433 9.46778 27.3232 9.49731 27.3981C9.52685 27.473 9.57089 27.5414 9.62684 27.5993C9.6828 27.6571 9.74961 27.7035 9.82347 27.7355C9.89732 27.7676 9.97676 27.7848 10.0573 27.7861H11.6573C11.818 27.7807 11.9702 27.7123 12.081 27.5957C12.1918 27.4791 12.2523 27.3236 12.2495 27.1628V25.303H14.2754V27.1628C14.2727 27.2428 14.2859 27.3225 14.3143 27.3973C14.3427 27.4722 14.3857 27.5406 14.4408 27.5987C14.4959 27.6567 14.5621 27.7032 14.6354 27.7354C14.7087 27.7676 14.7876 27.7848 14.8677 27.7861H16.4677C16.5482 27.7848 16.6277 27.7676 16.7015 27.7355C16.7754 27.7035 16.8422 27.6571 16.8981 27.5993C16.9541 27.5414 16.9981 27.473 17.0276 27.3981C17.0571 27.3232 17.0717 27.2433 17.0703 27.1628V25.3238H19.0859V27.1628C19.0831 27.3236 19.1436 27.4791 19.2544 27.5957C19.3652 27.7123 19.5173 27.7807 19.6781 27.7861H21.2885C21.4492 27.7807 21.6015 27.7123 21.7122 27.5957C21.823 27.4791 21.8835 27.3236 21.8807 27.1628V25.3238H23.6885C24.0941 25.2843 24.4968 25.2184 24.8937 25.1264C25.2899 25.0334 25.6788 24.9119 26.0573 24.7627C26.4339 24.61 26.7985 24.4294 27.1483 24.2225C27.5093 24.0171 27.8564 23.788 28.1872 23.5368C28.4945 23.2848 28.7828 23.0105 29.0496 22.716C29.3189 22.4244 29.5688 22.1155 29.7977 21.7913C30.0153 21.4569 30.2131 21.11 30.3899 20.7523C30.5552 20.4147 30.7008 20.0678 30.8262 19.7134C30.9469 19.3403 31.0373 18.9581 31.0964 18.5705C31.1642 18.1929 31.2059 17.811 31.2211 17.4276L31.2106 16.7419C31.2056 16.6485 31.2056 16.5548 31.2106 16.4614V16.2224C31.1971 15.9367 31.072 15.6677 30.8621 15.4734C30.6522 15.2791 30.3745 15.175 30.0886 15.1835C29.8194 15.2028 29.5662 15.3184 29.3754 15.5092C29.1846 15.7 29.0689 15.9533 29.0496 16.2224V16.4094C29.0554 16.4786 29.0554 16.5481 29.0496 16.6172V17.012C28.9665 17.2718 28.9249 17.5315 28.821 17.7705C28.7341 18.0131 28.6299 18.2492 28.5093 18.477C28.3891 18.703 28.2501 18.9185 28.0937 19.1211C27.9458 19.3208 27.7862 19.5117 27.6158 19.6926C27.4383 19.8595 27.251 20.0157 27.0548 20.1601C26.8627 20.3015 26.6614 20.43 26.4522 20.5445C26.2441 20.6496 26.0288 20.7398 25.808 20.8146C24.5405 21.251 22.7846 20.5549 22.2547 18.2484C22.2547 18.0822 22.2028 17.9159 22.1716 17.7497C22.167 17.7222 22.167 17.6941 22.1716 17.6666C21.8566 16.3431 21.0986 15.1671 20.0233 14.3337C18.948 13.5003 17.6201 13.0596 16.2599 13.0848C15.4206 13.1023 14.5881 13.2388 13.7872 13.49C10.9743 14.5166 8.81079 12.8376 8.14684 9.47809L6.88343 4.47423L5.91349 1.44827C5.8132 0.987004 5.53938 0.58196 5.14872 0.317004Z" fill="#FF8C00"/>
</svg>
